<svg width="188" height="30" viewBox="0 0 188 30" fill="none" xmlns="http://www.w3.org/2000/svg">
<g clip-path="url(#clip0_434_5667)">
<path d="M1.40128 21.5331L1.40194 21.5346C1.81536 22.4417 2.48624 23.5183 3.21371 24.4935C3.94247 25.4703 4.71378 26.3261 5.32255 26.8031C6.46978 27.6815 8.74265 28.8118 10.5031 29.3294C11.552 29.6294 13.1114 29.7836 14.7101 29.7812C16.3081 29.7789 17.9171 29.6203 19.0628 29.3095C25.0674 27.6695 29.4549 22.0836 29.5475 15.935C29.5706 13.9463 29.2454 12.4122 28.5363 11.2089C27.8295 10.0094 26.7257 9.11217 25.1405 8.42453C24.1988 8.03113 23.5788 7.93826 21.8545 7.93826C20.9158 7.93826 20.3491 7.96205 19.7928 8.06964C19.2358 8.17739 18.6789 8.37114 17.7631 8.7271C15.6526 9.56919 14.1074 10.6299 13.0434 11.9622C11.9812 13.2924 11.3842 14.9115 11.1996 16.8967C11.1526 17.5242 11.1209 18.0047 11.113 18.3833C11.1051 18.764 11.1218 19.0261 11.1651 19.2216C11.2068 19.4095 11.2728 19.5338 11.3687 19.6417C11.4705 19.7563 11.6147 19.8625 11.8347 20.0011C12.0748 20.149 12.3865 20.2916 12.6847 20.3971C12.9904 20.5052 13.2509 20.5633 13.3945 20.5633C13.6507 20.5633 13.8455 20.5227 14.0052 20.4395C14.1633 20.3571 14.3074 20.2223 14.4449 19.9998C14.7291 19.5399 14.9577 18.7542 15.217 17.4471C15.4782 16.0549 15.8397 15.0184 16.4127 14.2407C16.9911 13.4557 17.7681 12.9569 18.8138 12.6075C19.7193 12.3033 20.465 12.1445 21.1495 12.1445C21.8392 12.1445 22.4524 12.3057 23.0926 12.6201L23.0927 12.6201L23.0967 12.6221C25.1392 13.6712 25.4808 16.033 24.6997 18.3365C23.9148 20.6513 21.9766 23.0171 19.2792 24.247L19.2777 24.2476C17.5137 25.0381 15.3986 25.2753 13.3992 25.0294C11.4011 24.7835 9.49312 24.0518 8.15354 22.8762L8.1527 22.8754C6.95556 21.8152 6.10815 20.7032 5.56217 19.4205C5.01672 18.1391 4.77845 16.7022 4.77845 15.0008C4.77845 12.3693 5.46025 10.1734 6.81254 8.4703C8.16447 6.76765 10.1681 5.58073 12.7701 4.93316C13.127 4.84414 13.5225 4.69578 13.8745 4.52816C14.2281 4.35979 14.5189 4.18099 14.6813 4.03626C15.2215 3.51453 15.3359 2.61539 15.088 1.79326C14.839 0.967878 14.2653 0.343937 13.5667 0.287788C13.4076 0.280613 13.0588 0.317789 12.5942 0.39287C12.1364 0.466848 11.59 0.573465 11.0544 0.694191C6.11886 1.89106 2.14359 5.79513 0.662968 10.9252C0.322622 12.1484 0.249357 14.25 0.395718 16.3427C0.54226 18.4379 0.904644 20.4615 1.40128 21.5331Z" fill="#454648" stroke="#454648" stroke-width="0.5"/>
<path d="M52.9518 29.2918L52.9524 29.2916C56.6826 28.3179 60.2468 25.3141 62.145 21.5467C62.431 20.9716 62.656 20.0208 62.808 18.8553C62.9591 17.6968 63.0351 16.3508 63.0351 15.0023C63.0351 13.6537 62.9591 12.3078 62.808 11.1493C62.656 9.98377 62.431 9.03303 62.145 8.45792C60.2468 4.69048 56.6826 1.68665 52.9524 0.71294L52.9518 0.712788C50.3627 0.0303459 46.8837 0.0677242 44.3898 0.786272C40.6891 1.85667 38.2479 3.69372 36.1654 6.92412C34.8596 8.99948 34.1953 11.9993 34.1953 15.0164C34.1953 18.034 34.8598 21.0242 36.1653 23.0804C38.2475 26.3289 40.6882 28.1477 44.3898 29.2183C46.8837 29.9369 50.3627 29.9742 52.9518 29.2918ZM50.3307 24.9989L50.3299 24.999C47.3942 25.479 44.0737 24.5804 41.9451 22.6701C39.7912 20.7581 38.7128 17.8587 38.7008 14.9869C38.6888 12.1154 39.7431 9.23674 41.9003 7.3701C42.6133 6.74432 43.1952 6.31703 43.8558 5.98515C44.515 5.65403 45.2409 5.42377 46.2339 5.1785C47.1392 4.95045 47.8894 4.83346 48.6571 4.83589C49.4242 4.83832 50.1971 4.95993 51.1479 5.19693C53.6125 5.78894 55.5117 6.94516 56.7867 8.62621C58.0612 10.3064 58.6943 12.4873 58.6706 15.0973C58.6703 17.8063 57.9163 20.0651 56.4848 21.759C55.053 23.4532 52.9625 24.5598 50.3307 24.9989Z" fill="#454648" stroke="#454648" stroke-width="0.5"/>
<path d="M122.481 0.524525C120.554 1.10577 119.05 2.06203 117.499 3.69327C115.149 6.18703 115.055 6.76827 114.82 17.5495C114.585 28.237 114.726 29.1183 116.606 29.3433C119.144 29.662 119.849 28.5558 119.849 24.2808C119.849 21.8995 120.037 20.812 120.413 20.662C120.742 20.5308 122.199 20.437 123.703 20.437C127.322 20.437 128.074 20.0245 128.074 17.9995C128.074 15.9745 127.322 15.562 123.703 15.562C122.199 15.562 120.742 15.4683 120.413 15.337C119.567 14.9995 119.661 10.0495 120.601 8.43703C121.541 6.74953 123.703 5.43703 125.442 5.43703C127.557 5.43703 129.061 6.31828 130.518 8.34328C131.176 9.31828 131.317 10.7433 131.458 18.8433C131.552 24.8433 131.787 28.4058 132.116 28.7245C132.727 29.3245 133.714 29.512 134.889 29.2495C136.675 28.8745 136.863 27.4683 136.628 17.737C136.393 7.78078 136.111 6.48702 133.62 3.65578C132.163 2.04327 130.659 1.12453 128.356 0.487024C126.1 -0.131725 124.69 -0.131725 122.481 0.524525Z" fill="#454648"/>
<path d="M73.5544 0.695311C66.3634 1.38906 64.1074 12.2453 70.3584 16.0891C71.9094 17.0266 74.1654 17.4391 77.7374 17.4391C79.3824 17.4391 80.5574 17.5328 80.9804 17.7203C82.2964 18.2266 82.9544 19.3891 82.9074 21.0016C82.8604 22.7266 81.9674 23.8516 80.4164 24.1891C79.8994 24.2828 77.0794 24.3766 74.1654 24.3766C71.2514 24.3766 68.6194 24.4516 68.2904 24.5266C66.5984 24.9578 66.3634 28.0516 67.9144 29.0078L68.7134 29.4766L75.1994 29.4016C81.4034 29.3453 81.7794 29.3266 82.9544 28.8766C84.6464 28.2578 86.1504 27.0203 87.2314 25.4078C88.3594 23.7391 88.5004 18.1328 87.4664 16.5016C86.4794 15.0016 84.8344 13.6141 83.2364 12.9578C81.9204 12.4141 81.5914 12.3766 78.3484 12.3766C75.3404 12.3766 74.7764 12.3203 73.8834 11.9453C72.5674 11.3828 71.7214 9.60156 72.1444 8.19531C72.8024 5.83281 73.4134 5.62656 79.6174 5.62656C85.8214 5.62656 85.7744 5.64531 85.7744 3.05781C85.7744 0.564062 85.7274 0.564062 79.2414 0.582811C76.6094 0.601561 74.0714 0.639061 73.5544 0.695311Z" fill="#454648"/>
<path d="M90.5685 0.825C89.0645 1.425 89.0645 4.0875 90.5215 5.00625C91.1795 5.4375 91.3205 5.4375 101.285 5.4375H111.39L112.142 4.96875C113.693 4.0125 113.411 1.1625 111.672 0.7125C111.39 0.6375 106.69 0.5625 101.191 0.5625C93.1065 0.5625 91.1325 0.61875 90.5685 0.825Z" fill="#454648"/>
<path d="M143.021 1.06875C141.893 1.7625 141.893 4.25625 143.021 4.95C143.82 5.41875 144.008 5.4375 148.285 5.4375C152.468 5.4375 152.75 5.45625 153.643 5.925C156.51 7.3875 156.463 10.9688 153.596 12.6C152.75 13.0875 152.468 13.125 149.46 13.125C146.546 13.125 146.076 13.1812 145.089 13.6125C142.598 14.6625 142.269 15.5625 142.034 21.4875C141.846 27.3375 142.175 28.8937 143.82 29.25C144.995 29.5125 145.982 29.325 146.593 28.725C146.875 28.425 147.157 26.2312 147.204 23.5125C147.345 19.1812 147.439 18.75 148.238 18.3937C148.849 18.1312 149.695 18 150.917 18C154.066 18 155.288 18.4125 156.792 19.9688C156.98 20.175 157.262 22.275 157.403 24.6187C157.685 28.575 157.732 28.9312 158.578 29.175C159.706 29.4938 159.894 29.4938 161.022 29.175C161.868 28.9125 161.915 28.6312 161.915 23.8687C161.915 18.5812 161.539 17.3437 159.33 15.5625C158.531 14.925 158.531 14.85 159.424 13.5C160.599 11.625 161.069 7.95 160.27 6.05625C159.518 4.21875 157.779 2.325 156.134 1.5375C154.489 0.787498 152.609 0.562498 147.721 0.562498C144.008 0.562498 143.82 0.581249 143.021 1.06875Z" fill="#454648"/>
<path d="M165.393 0.88125C164.359 1.35 164.218 4.125 165.158 4.85625L165.957 5.4375H176.25H186.543L187.342 4.85625C188.47 3.975 188.141 1.2 186.872 0.825C186.12 0.61875 183.864 0.5625 175.968 0.5625C167.273 0.5625 165.957 0.6 165.393 0.88125Z" fill="#454648"/>
<path d="M99.3572 9.84396C98.8402 10.369 98.6992 12.019 98.6992 19.2752C98.6992 25.1065 98.8872 28.2565 99.2162 28.6502C99.8742 29.419 101.425 29.6252 102.506 29.0815C103.775 28.444 103.916 27.2815 103.775 18.469C103.634 9.52521 103.54 9.18771 101.19 9.18771C100.344 9.18771 99.8742 9.35645 99.3572 9.84396Z" fill="#454648"/>
<path d="M174.323 9.69612C173.477 10.3899 173.101 26.4586 173.9 28.0336C174.464 29.1399 175.263 29.5336 176.626 29.3649C178.506 29.1211 178.6 28.6524 178.6 19.2961C178.6 11.5899 178.506 10.2211 177.895 9.75237C176.955 9.02112 175.263 9.00237 174.323 9.69612Z" fill="#454648"/>
</g>
<defs>
<clipPath id="clip0_434_5667">
<rect width="188" height="30" fill="white"/>
</clipPath>
</defs>
</svg>
