<svg width="182" height="49" viewBox="0 0 182 49" fill="none" xmlns="http://www.w3.org/2000/svg">
<g clip-path="url(#clip0_1_2741)">
<path d="M10.5746 1.40552C5.70612 2.58365 1.79312 6.42615 0.33712 11.4649C-0.34538 13.9118 0.06412 19.7299 1.06512 21.8868C1.88412 23.6811 3.70412 26.1099 4.93262 27.0705C6.07012 27.9405 8.29962 29.0461 10.0286 29.5536C12.1216 30.1518 16.1711 30.1518 18.4461 29.5355C24.3611 27.9224 28.6836 22.4305 28.7746 16.3768C28.8201 12.4799 27.5006 10.2505 24.3611 8.89115C23.4056 8.4924 22.7686 8.40177 21.0851 8.40177C19.2651 8.40177 18.8101 8.4924 17.0356 9.18115C12.8951 10.8305 10.8931 13.368 10.5291 17.283C10.3471 19.7118 10.3926 19.9655 11.2571 20.5093C11.7576 20.8174 12.5311 21.0893 12.8951 21.0893C13.9871 21.0893 14.3966 20.4005 14.8971 17.8811C15.3976 15.2168 16.2621 14.0386 18.2186 13.3861C19.9476 12.8061 20.9941 12.8061 22.1771 13.3861C25.8171 15.253 23.5876 21.8686 18.4916 24.1886C15.1701 25.6749 10.4836 25.0949 7.98112 22.9018C5.70612 20.8899 4.79612 18.7149 4.79612 15.4705C4.79612 10.468 7.38962 7.20552 12.3491 5.97302C13.0771 5.79177 13.9416 5.3749 14.3056 5.04865C15.5341 3.87052 14.7151 1.13365 13.0771 1.00677C12.7131 0.988647 11.6211 1.1699 10.5746 1.40552Z" fill="#FFF334"/>
<path d="M42.8341 1.49617C39.1941 2.54742 36.7826 4.35992 34.7351 7.53179C32.1416 11.6462 32.1416 19.3312 34.7351 23.4093C36.7826 26.5993 39.1941 28.3937 42.8341 29.4449C45.2911 30.1518 48.7036 30.188 51.2516 29.5174C54.9371 28.5568 58.4406 25.6024 60.3061 21.9049C61.4891 19.5305 61.4891 11.4105 60.3061 9.03617C58.4406 5.33867 54.9371 2.38429 51.2516 1.42367C48.7036 0.753042 45.2911 0.789293 42.8341 1.49617ZM49.3861 6.22679C54.0726 7.35054 56.5296 10.5949 56.4841 15.5612C56.4841 20.7087 53.6176 24.0618 48.6126 24.8955C45.8371 25.3487 42.6976 24.4968 40.6956 22.7024C36.6461 19.1137 36.6006 11.773 40.6501 8.27492C42.0151 7.07867 42.8341 6.67992 44.7451 6.20867C46.4741 5.77367 47.5661 5.77367 49.3861 6.22679Z" fill="#FFF334"/>
<path d="M118.501 1.47807C116.635 2.03995 115.179 2.96432 113.678 4.54119C111.403 6.95182 111.312 7.51369 111.084 17.9356C110.857 28.2668 110.993 29.1187 112.813 29.3362C115.27 29.6443 115.953 28.5749 115.953 24.4424C115.953 22.1406 116.135 21.0893 116.499 20.9443C116.817 20.8174 118.228 20.7268 119.684 20.7268C123.187 20.7268 123.915 20.3281 123.915 18.3706C123.915 16.4131 123.187 16.0143 119.684 16.0143C118.228 16.0143 116.817 15.9237 116.499 15.7968C115.68 15.4706 115.771 10.6856 116.681 9.12682C117.591 7.49557 119.684 6.22682 121.367 6.22682C123.415 6.22682 124.871 7.0787 126.281 9.0362C126.918 9.97869 127.055 11.3562 127.191 19.1862C127.282 24.9862 127.51 28.4299 127.828 28.7381C128.42 29.3181 129.375 29.4993 130.513 29.2456C132.242 28.8831 132.424 27.5237 132.196 18.1168C131.969 8.49244 131.696 7.24182 129.284 4.50495C127.874 2.9462 126.418 2.05807 124.188 1.44182C122.004 0.843697 120.639 0.843697 118.501 1.47807Z" fill="#FCFBF3"/>
<path d="M71.1351 1.64101C64.1736 2.31164 61.9896 12.806 68.0411 16.5216C69.5426 17.4279 71.7266 17.8266 75.1846 17.8266C76.7771 17.8266 77.9146 17.9173 78.3242 18.0985C79.5982 18.5879 80.2352 19.7116 80.1897 21.2704C80.1441 22.9379 79.2796 24.0254 77.7781 24.3516C77.2776 24.4423 74.5476 24.5329 71.7266 24.5329C68.9056 24.5329 66.3576 24.6054 66.0391 24.6779C64.4011 25.0948 64.1736 28.0854 65.6751 29.0098L66.4486 29.4629L72.7276 29.3904C78.7336 29.336 79.0977 29.3179 80.2352 28.8829C81.8731 28.2848 83.3292 27.0885 84.3757 25.5298C85.4677 23.9166 85.6042 18.4973 84.6032 16.9204C83.6476 15.4704 82.0552 14.1291 80.5082 13.4948C79.2341 12.9691 78.9156 12.9329 75.7761 12.9329C72.8641 12.9329 72.3181 12.8785 71.4536 12.516C70.1796 11.9723 69.3606 10.2504 69.7701 8.89101C70.4071 6.60726 70.9986 6.40789 77.0047 6.40789C83.0107 6.40789 82.9652 6.42601 82.9652 3.92476C82.9652 1.51414 82.9197 1.51414 76.6406 1.53226C74.0926 1.55039 71.6356 1.58664 71.1351 1.64101Z" fill="#FCFBF3"/>
<path d="M87.6061 1.76781C86.1501 2.34781 86.1501 4.92156 87.5606 5.80969C88.1976 6.22656 88.3341 6.22656 97.9801 6.22656H107.763L108.491 5.77344C109.992 4.84906 109.719 2.09406 108.036 1.65906C107.763 1.58656 103.213 1.51406 97.8891 1.51406C90.0631 1.51406 88.1521 1.56844 87.6061 1.76781Z" fill="#FCFBF3"/>
<path d="M138.384 2.00383C137.292 2.67445 137.292 5.08508 138.384 5.7557C139.158 6.20883 139.34 6.22695 143.48 6.22695C147.53 6.22695 147.803 6.24508 148.667 6.6982C151.443 8.11195 151.397 11.5738 148.622 13.1507C147.803 13.622 147.53 13.6582 144.618 13.6582C141.797 13.6582 141.342 13.7126 140.386 14.1295C137.975 15.1445 137.656 16.0145 137.429 21.742C137.247 27.397 137.565 28.9013 139.158 29.2457C140.295 29.4995 141.251 29.3182 141.842 28.7382C142.115 28.4482 142.388 26.3276 142.434 23.6995C142.57 19.5126 142.661 19.0957 143.435 18.7513C144.026 18.4976 144.845 18.3707 146.028 18.3707C149.077 18.3707 150.26 18.7695 151.716 20.2738C151.898 20.4732 152.171 22.5032 152.307 24.7688C152.58 28.5932 152.626 28.9376 153.445 29.1732C154.537 29.4813 154.719 29.4813 155.811 29.1732C156.63 28.9195 156.675 28.6476 156.675 24.0438C156.675 18.9326 156.311 17.7363 154.173 16.0145C153.399 15.3982 153.399 15.3257 154.264 14.0207C155.401 12.2082 155.856 8.6557 155.083 6.82508C154.355 5.04883 152.671 3.2182 151.079 2.45695C149.486 1.73195 147.666 1.51445 142.934 1.51445C139.34 1.51445 139.158 1.53258 138.384 2.00383Z" fill="#FCFBF3"/>
<path d="M160.042 1.82219C159.041 2.27531 158.905 4.95781 159.815 5.66469L160.588 6.22656H170.553H180.517L181.291 5.66469C182.383 4.81281 182.064 2.13031 180.836 1.76781C180.108 1.56844 177.924 1.51406 170.28 1.51406C161.862 1.51406 160.588 1.55031 160.042 1.82219Z" fill="#FCFBF3"/>
<path d="M96.1146 10.4861C95.6141 10.9936 95.4776 12.5886 95.4776 19.603C95.4776 25.2399 95.6596 28.2849 95.9781 28.6655C96.6151 29.4086 98.1166 29.608 99.1631 29.0824C100.392 28.4661 100.528 27.3424 100.392 18.8236C100.255 10.178 100.164 9.85173 97.8891 9.85173C97.0701 9.85173 96.6151 10.0149 96.1146 10.4861Z" fill="#FCFBF3"/>
<path d="M168.687 10.3413C167.868 11.0119 167.504 26.545 168.278 28.0675C168.824 29.1369 169.597 29.5175 170.917 29.3544C172.737 29.1188 172.828 28.6656 172.828 19.6213C172.828 12.1719 172.737 10.8488 172.145 10.3956C171.235 9.68877 169.597 9.67064 168.687 10.3413Z" fill="#FCFBF3"/>
<path d="M4.27 49C7.28 49 9.282 46.984 9.282 43.988C9.282 40.992 7.266 38.976 4.242 38.976H1.218V49H4.27ZM4.2 39.9C6.678 39.9 8.246 41.482 8.246 43.988C8.246 46.48 6.678 48.076 4.228 48.076H2.226V39.9H4.2ZM14.4348 42.14C14.1968 42.084 14.0148 42.07 13.8048 42.07C12.8528 42.07 12.1388 42.546 11.8728 43.274L11.8028 42.224H10.8928V49H11.8588V45.136C11.8588 43.848 12.6568 43.008 13.9028 43.008H14.4348V42.14ZM18.3012 49.168C19.8972 49.168 20.9472 48.398 21.3112 46.97H20.3872C20.1352 47.866 19.4212 48.342 18.3152 48.342C16.8592 48.342 15.9912 47.39 15.9212 45.738H21.3112V45.262C21.3112 43.344 20.0652 42.042 18.2312 42.042C16.2992 42.042 14.9832 43.498 14.9832 45.612C14.9832 47.74 16.3132 49.168 18.3012 49.168ZM18.2312 42.868C19.5052 42.868 20.3452 43.736 20.3452 45.038H15.9492C16.1172 43.708 16.9572 42.868 18.2312 42.868ZM24.7333 49.168C25.8813 49.168 26.8053 48.664 27.2253 47.81L27.3513 49H28.1633V44.618C28.1633 42.826 27.0153 42.042 25.4473 42.042C23.7813 42.042 22.6613 42.924 22.6613 44.296H23.5433C23.5433 43.386 24.2433 42.854 25.4193 42.854C26.4133 42.854 27.2113 43.274 27.2113 44.604V44.828L24.9713 45.01C23.3893 45.136 22.4373 45.92 22.4373 47.166C22.4373 48.356 23.2913 49.168 24.7333 49.168ZM24.9573 48.384C24.0333 48.384 23.4173 47.964 23.4173 47.138C23.4173 46.382 23.9353 45.822 25.2093 45.71L27.2113 45.556V45.92C27.2113 47.39 26.3853 48.384 24.9573 48.384ZM31.0678 49V44.8C31.0678 43.764 31.7538 42.924 32.8878 42.924C33.9098 42.924 34.5678 43.596 34.5678 44.744V49H35.5198V44.814C35.5198 43.764 36.1918 42.91 37.3257 42.91C38.3618 42.91 39.0058 43.596 39.0058 44.758V49H39.9438V44.562C39.9438 42.994 38.9778 42.042 37.5078 42.042C36.4158 42.042 35.5898 42.602 35.2818 43.484C34.9598 42.602 34.1618 42.042 33.0978 42.042C32.1458 42.042 31.3898 42.476 31.0538 43.19L30.9417 42.224H30.1018V49H31.0678ZM43.5949 48.524C43.5949 47.824 43.1609 47.418 42.6569 47.418C42.1669 47.418 41.8309 47.768 41.8309 48.258C41.8309 48.734 42.1669 49.014 42.5589 49.014C42.7269 49.014 42.8389 48.972 42.9229 48.916C42.9229 49.308 42.5589 49.672 42.0549 49.756V50.274C42.9229 50.148 43.5949 49.392 43.5949 48.524ZM52.6958 49C55.7058 49 57.7078 46.984 57.7078 43.988C57.7078 40.992 55.6918 38.976 52.6678 38.976H49.6438V49H52.6958ZM52.6258 39.9C55.1038 39.9 56.6718 41.482 56.6718 43.988C56.6718 46.48 55.1038 48.076 52.6538 48.076H50.6518V39.9H52.6258ZM58.8425 45.612C58.8425 47.67 60.2985 49.168 62.2865 49.168C64.2745 49.168 65.7305 47.67 65.7305 45.612C65.7305 43.54 64.2745 42.042 62.2865 42.042C60.2985 42.042 58.8425 43.54 58.8425 45.612ZM59.8225 45.598C59.8225 44.03 60.8305 42.91 62.2865 42.91C63.7285 42.91 64.7505 44.03 64.7505 45.598C64.7505 47.194 63.7285 48.3 62.2865 48.3C60.8305 48.3 59.8225 47.194 59.8225 45.598ZM72.3904 45.99C72.5024 44.996 72.5724 43.162 72.5724 41.342V38.976H71.5224V41.342C71.5224 43.148 71.5784 44.996 71.6904 45.99H72.3904ZM72.0544 49.196C72.5164 49.196 72.9224 48.79 72.9224 48.314C72.9224 47.838 72.5164 47.446 72.0544 47.446C71.5644 47.446 71.1724 47.838 71.1724 48.314C71.1724 48.79 71.5644 49.196 72.0544 49.196Z" fill="white"/>
</g>
<defs>
<clipPath id="clip0_1_2741">
<rect width="181.957" height="48.0575" fill="white" transform="translate(0 0.942383)"/>
</clipPath>
</defs>
</svg>
