<svg xmlns="http://www.w3.org/2000/svg" xmlns:xlink="http://www.w3.org/1999/xlink" width="182" zoomAndPan="magnify" viewBox="0 0 136.5 36.750001" height="49" preserveAspectRatio="xMidYMid meet" version="1.0"><defs><g/><clipPath id="4f8c4c36f0"><path d="M 0.210938 0.703125 L 22 0.703125 L 22 23 L 0.210938 23 Z M 0.210938 0.703125 " clip-rule="nonzero"/></clipPath><clipPath id="a7192df6fa"><path d="M 24 0.703125 L 46 0.703125 L 46 23 L 24 23 Z M 24 0.703125 " clip-rule="nonzero"/></clipPath><clipPath id="bf250b3dc0"><path d="M 83 0.703125 L 100 0.703125 L 100 22 L 83 22 Z M 83 0.703125 " clip-rule="nonzero"/></clipPath><clipPath id="ca3f73083f"><path d="M 119 1 L 135.789062 1 L 135.789062 5 L 119 5 Z M 119 1 " clip-rule="nonzero"/></clipPath><clipPath id="1f7e347404"><path d="M 0.210938 29 L 61 29 L 61 36.5 L 0.210938 36.5 Z M 0.210938 29 " clip-rule="nonzero"/></clipPath></defs><g clip-path="url(#4f8c4c36f0)"><path fill="#fff334" d="M 8.117188 1.050781 C 4.480469 1.933594 1.554688 4.804688 0.464844 8.570312 C -0.046875 10.402344 0.261719 14.75 1.007812 16.363281 C 1.621094 17.707031 2.980469 19.519531 3.902344 20.238281 C 4.75 20.890625 6.417969 21.714844 7.710938 22.097656 C 9.277344 22.542969 12.304688 22.542969 14.003906 22.082031 C 18.425781 20.875 21.660156 16.769531 21.726562 12.246094 C 21.761719 9.332031 20.773438 7.664062 18.425781 6.648438 C 17.710938 6.347656 17.234375 6.28125 15.976562 6.28125 C 14.617188 6.28125 14.277344 6.347656 12.949219 6.863281 C 9.855469 8.097656 8.355469 9.996094 8.085938 12.921875 C 7.949219 14.738281 7.984375 14.925781 8.628906 15.335938 C 9.003906 15.5625 9.582031 15.769531 9.855469 15.769531 C 10.671875 15.769531 10.976562 15.253906 11.351562 13.367188 C 11.726562 11.378906 12.371094 10.496094 13.835938 10.007812 C 15.125 9.574219 15.910156 9.574219 16.792969 10.007812 C 19.515625 11.402344 17.847656 16.351562 14.039062 18.085938 C 11.554688 19.195312 8.050781 18.761719 6.179688 17.121094 C 4.480469 15.617188 3.796875 13.992188 3.796875 11.566406 C 3.796875 7.828125 5.738281 5.386719 9.445312 4.464844 C 9.988281 4.332031 10.636719 4.019531 10.910156 3.773438 C 11.828125 2.894531 11.214844 0.847656 9.988281 0.753906 C 9.71875 0.738281 8.902344 0.875 8.117188 1.050781 Z M 8.117188 1.050781 " fill-opacity="1" fill-rule="nonzero"/></g><g clip-path="url(#a7192df6fa)"><path fill="#fff334" d="M 32.238281 1.117188 C 29.515625 1.90625 27.714844 3.257812 26.183594 5.632812 C 24.242188 8.707031 24.242188 14.453125 26.183594 17.503906 C 27.714844 19.886719 29.515625 21.230469 32.238281 22.015625 C 34.074219 22.542969 36.625 22.570312 38.53125 22.070312 C 41.289062 21.351562 43.90625 19.140625 45.300781 16.378906 C 46.1875 14.601562 46.1875 8.53125 45.300781 6.757812 C 43.90625 3.992188 41.289062 1.78125 38.53125 1.0625 C 36.625 0.5625 34.074219 0.589844 32.238281 1.117188 Z M 37.136719 4.65625 C 40.640625 5.496094 42.476562 7.921875 42.445312 11.632812 C 42.445312 15.484375 40.300781 17.988281 36.558594 18.613281 C 34.484375 18.953125 32.136719 18.316406 30.640625 16.972656 C 27.613281 14.289062 27.578125 8.800781 30.605469 6.1875 C 31.625 5.292969 32.238281 4.996094 33.667969 4.640625 C 34.960938 4.316406 35.777344 4.316406 37.136719 4.65625 Z M 37.136719 4.65625 " fill-opacity="1" fill-rule="nonzero"/></g><g clip-path="url(#bf250b3dc0)"><path fill="#fcfbf3" d="M 88.8125 1.105469 C 87.417969 1.523438 86.328125 2.214844 85.207031 3.394531 C 83.503906 5.199219 83.4375 5.617188 83.265625 13.410156 C 83.097656 21.132812 83.199219 21.769531 84.558594 21.933594 C 86.394531 22.164062 86.90625 21.363281 86.90625 18.273438 C 86.90625 16.554688 87.042969 15.769531 87.316406 15.660156 C 87.550781 15.5625 88.605469 15.496094 89.695312 15.496094 C 92.316406 15.496094 92.859375 15.199219 92.859375 13.734375 C 92.859375 12.269531 92.316406 11.972656 89.695312 11.972656 C 88.605469 11.972656 87.550781 11.90625 87.316406 11.8125 C 86.703125 11.566406 86.769531 7.988281 87.449219 6.824219 C 88.132812 5.605469 89.695312 4.65625 90.953125 4.65625 C 92.484375 4.65625 93.574219 5.292969 94.628906 6.757812 C 95.105469 7.460938 95.207031 8.492188 95.308594 14.34375 C 95.375 18.679688 95.546875 21.257812 95.785156 21.488281 C 96.226562 21.921875 96.941406 22.054688 97.792969 21.867188 C 99.085938 21.59375 99.222656 20.578125 99.050781 13.546875 C 98.882812 6.347656 98.675781 5.414062 96.875 3.367188 C 95.820312 2.203125 94.730469 1.539062 93.0625 1.078125 C 91.429688 0.628906 90.410156 0.628906 88.8125 1.105469 Z M 88.8125 1.105469 " fill-opacity="1" fill-rule="nonzero"/></g><path fill="#fcfbf3" d="M 53.398438 1.226562 C 48.191406 1.726562 46.558594 9.574219 51.085938 12.351562 C 52.207031 13.03125 53.839844 13.328125 56.425781 13.328125 C 57.617188 13.328125 58.464844 13.394531 58.773438 13.53125 C 59.726562 13.898438 60.203125 14.738281 60.167969 15.902344 C 60.132812 17.148438 59.488281 17.960938 58.363281 18.207031 C 57.992188 18.273438 55.949219 18.34375 53.839844 18.34375 C 51.730469 18.34375 49.824219 18.398438 49.585938 18.449219 C 48.363281 18.761719 48.191406 21 49.316406 21.691406 L 49.894531 22.027344 L 54.589844 21.972656 C 59.078125 21.933594 59.351562 21.917969 60.203125 21.59375 C 61.425781 21.148438 62.515625 20.253906 63.296875 19.085938 C 64.113281 17.882812 64.214844 13.828125 63.46875 12.652344 C 62.753906 11.566406 61.5625 10.5625 60.40625 10.089844 C 59.453125 9.695312 59.214844 9.667969 56.867188 9.667969 C 54.691406 9.667969 54.28125 9.628906 53.636719 9.359375 C 52.683594 8.953125 52.070312 7.664062 52.378906 6.648438 C 52.851562 4.941406 53.296875 4.789062 57.785156 4.789062 C 62.277344 4.789062 62.242188 4.804688 62.242188 2.933594 C 62.242188 1.132812 62.207031 1.132812 57.515625 1.144531 C 55.609375 1.160156 53.773438 1.1875 53.398438 1.226562 Z M 53.398438 1.226562 " fill-opacity="1" fill-rule="nonzero"/><path fill="#fcfbf3" d="M 65.710938 1.320312 C 64.625 1.753906 64.625 3.679688 65.679688 4.34375 C 66.15625 4.65625 66.257812 4.65625 73.46875 4.65625 L 80.78125 4.65625 L 81.328125 4.316406 C 82.449219 3.625 82.246094 1.566406 80.988281 1.242188 C 80.78125 1.1875 77.382812 1.132812 73.402344 1.132812 C 67.550781 1.132812 66.121094 1.171875 65.710938 1.320312 Z M 65.710938 1.320312 " fill-opacity="1" fill-rule="nonzero"/><path fill="#fcfbf3" d="M 103.675781 1.5 C 102.859375 2 102.859375 3.800781 103.675781 4.304688 C 104.253906 4.640625 104.390625 4.65625 107.488281 4.65625 C 110.515625 4.65625 110.71875 4.667969 111.367188 5.007812 C 113.441406 6.066406 113.40625 8.652344 111.332031 9.832031 C 110.71875 10.183594 110.515625 10.210938 108.339844 10.210938 C 106.230469 10.210938 105.890625 10.253906 105.175781 10.5625 C 103.371094 11.324219 103.132812 11.972656 102.964844 16.253906 C 102.828125 20.484375 103.066406 21.609375 104.253906 21.867188 C 105.105469 22.054688 105.820312 21.921875 106.261719 21.488281 C 106.464844 21.269531 106.671875 19.683594 106.707031 17.71875 C 106.808594 14.589844 106.875 14.277344 107.453125 14.019531 C 107.894531 13.828125 108.507812 13.734375 109.390625 13.734375 C 111.671875 13.734375 112.554688 14.035156 113.644531 15.15625 C 113.78125 15.308594 113.984375 16.824219 114.085938 18.519531 C 114.289062 21.378906 114.324219 21.636719 114.9375 21.8125 C 115.753906 22.042969 115.890625 22.042969 116.707031 21.8125 C 117.320312 21.621094 117.351562 21.417969 117.351562 17.976562 C 117.351562 14.15625 117.082031 13.261719 115.480469 11.972656 C 114.902344 11.511719 114.902344 11.457031 115.550781 10.484375 C 116.398438 9.128906 116.742188 6.472656 116.164062 5.101562 C 115.617188 3.773438 114.359375 2.40625 113.167969 1.835938 C 111.976562 1.292969 110.617188 1.132812 107.078125 1.132812 C 104.390625 1.132812 104.253906 1.144531 103.675781 1.5 Z M 103.675781 1.5 " fill-opacity="1" fill-rule="nonzero"/><g clip-path="url(#ca3f73083f)"><path fill="#fcfbf3" d="M 119.871094 1.363281 C 119.121094 1.699219 119.019531 3.707031 119.699219 4.234375 L 120.277344 4.65625 L 135.179688 4.65625 L 135.757812 4.234375 C 136.574219 3.597656 136.335938 1.59375 135.417969 1.320312 C 134.871094 1.171875 133.238281 1.132812 127.523438 1.132812 C 121.230469 1.132812 120.277344 1.160156 119.871094 1.363281 Z M 119.871094 1.363281 " fill-opacity="1" fill-rule="nonzero"/></g><path fill="#fcfbf3" d="M 72.074219 7.839844 C 71.699219 8.21875 71.597656 9.410156 71.597656 14.65625 C 71.597656 18.871094 71.734375 21.148438 71.972656 21.433594 C 72.449219 21.988281 73.570312 22.136719 74.351562 21.742188 C 75.273438 21.28125 75.375 20.441406 75.273438 14.074219 C 75.167969 7.609375 75.101562 7.367188 73.402344 7.367188 C 72.789062 7.367188 72.449219 7.488281 72.074219 7.839844 Z M 72.074219 7.839844 " fill-opacity="1" fill-rule="nonzero"/><path fill="#fcfbf3" d="M 126.332031 7.730469 C 125.722656 8.234375 125.449219 19.847656 126.027344 20.984375 C 126.4375 21.785156 127.015625 22.070312 128 21.945312 C 129.363281 21.769531 129.429688 21.433594 129.429688 14.671875 C 129.429688 9.101562 129.363281 8.109375 128.917969 7.773438 C 128.238281 7.242188 127.015625 7.230469 126.332031 7.730469 Z M 126.332031 7.730469 " fill-opacity="1" fill-rule="nonzero"/><g clip-path="url(#1f7e347404)"><g fill="#fcfbf3" fill-opacity="1"><g transform="translate(0.212836, 36.064102)"><g><path d="M 3.25 0.078125 C 2.738281 0.078125 2.28125 -0.0351562 1.875 -0.265625 C 1.46875 -0.503906 1.148438 -0.847656 0.921875 -1.296875 C 0.703125 -1.753906 0.59375 -2.300781 0.59375 -2.9375 C 0.59375 -3.582031 0.703125 -4.128906 0.921875 -4.578125 C 1.148438 -5.035156 1.46875 -5.378906 1.875 -5.609375 C 2.28125 -5.847656 2.738281 -5.96875 3.25 -5.96875 C 3.800781 -5.96875 4.257812 -5.863281 4.625 -5.65625 C 4.988281 -5.445312 5.253906 -5.132812 5.421875 -4.71875 L 4.96875 -4.421875 L 4.875 -4.421875 C 4.707031 -4.765625 4.492188 -5.003906 4.234375 -5.140625 C 3.984375 -5.285156 3.65625 -5.359375 3.25 -5.359375 C 2.882812 -5.359375 2.554688 -5.273438 2.265625 -5.109375 C 1.984375 -4.941406 1.753906 -4.675781 1.578125 -4.3125 C 1.410156 -3.957031 1.328125 -3.5 1.328125 -2.9375 C 1.328125 -2.382812 1.410156 -1.925781 1.578125 -1.5625 C 1.753906 -1.207031 1.984375 -0.945312 2.265625 -0.78125 C 2.554688 -0.625 2.882812 -0.546875 3.25 -0.546875 C 3.675781 -0.546875 4.023438 -0.640625 4.296875 -0.828125 C 4.566406 -1.015625 4.769531 -1.328125 4.90625 -1.765625 L 5 -1.765625 L 5.46875 -1.53125 C 5.332031 -1.007812 5.070312 -0.609375 4.6875 -0.328125 C 4.3125 -0.0546875 3.832031 0.078125 3.25 0.078125 Z M 3.25 0.078125 "/></g></g><g transform="translate(5.986642, 36.064102)"><g><path d="M 2.546875 0.078125 C 2.128906 0.078125 1.765625 -0.0078125 1.453125 -0.1875 C 1.140625 -0.363281 0.898438 -0.625 0.734375 -0.96875 C 0.566406 -1.3125 0.484375 -1.726562 0.484375 -2.21875 C 0.484375 -2.707031 0.566406 -3.125 0.734375 -3.46875 C 0.898438 -3.820312 1.140625 -4.085938 1.453125 -4.265625 C 1.765625 -4.441406 2.128906 -4.53125 2.546875 -4.53125 C 2.960938 -4.53125 3.328125 -4.441406 3.640625 -4.265625 C 3.953125 -4.085938 4.191406 -3.820312 4.359375 -3.46875 C 4.523438 -3.125 4.609375 -2.707031 4.609375 -2.21875 C 4.609375 -1.726562 4.523438 -1.3125 4.359375 -0.96875 C 4.191406 -0.625 3.953125 -0.363281 3.640625 -0.1875 C 3.328125 -0.0078125 2.960938 0.078125 2.546875 0.078125 Z M 2.546875 -0.5 C 2.992188 -0.5 3.332031 -0.640625 3.5625 -0.921875 C 3.800781 -1.203125 3.921875 -1.632812 3.921875 -2.21875 C 3.921875 -2.8125 3.800781 -3.242188 3.5625 -3.515625 C 3.332031 -3.796875 2.992188 -3.9375 2.546875 -3.9375 C 2.109375 -3.9375 1.769531 -3.796875 1.53125 -3.515625 C 1.289062 -3.234375 1.171875 -2.800781 1.171875 -2.21875 C 1.171875 -1.632812 1.289062 -1.203125 1.53125 -0.921875 C 1.769531 -0.640625 2.109375 -0.5 2.546875 -0.5 Z M 2.546875 -0.5 "/></g></g><g transform="translate(11.084019, 36.064102)"><g><path d="M 0.78125 0 L 0.78125 -4.4375 L 1.390625 -4.4375 L 1.390625 -3.75 L 1.484375 -3.71875 C 1.628906 -3.976562 1.816406 -4.175781 2.046875 -4.3125 C 2.273438 -4.457031 2.554688 -4.53125 2.890625 -4.53125 C 3.421875 -4.53125 3.804688 -4.390625 4.046875 -4.109375 C 4.285156 -3.835938 4.40625 -3.421875 4.40625 -2.859375 L 4.40625 0 L 3.75 0 L 3.75 -2.84375 C 3.75 -3.113281 3.710938 -3.328125 3.640625 -3.484375 C 3.578125 -3.648438 3.472656 -3.769531 3.328125 -3.84375 C 3.191406 -3.914062 3.003906 -3.953125 2.765625 -3.953125 C 2.367188 -3.953125 2.046875 -3.816406 1.796875 -3.546875 C 1.554688 -3.285156 1.4375 -2.863281 1.4375 -2.28125 L 1.4375 0 Z M 0.78125 0 "/></g></g><g transform="translate(16.197501, 36.064102)"><g><path d="M 2.03125 0.078125 C 1.75 0.078125 1.488281 0.0390625 1.25 -0.03125 C 1.007812 -0.101562 0.804688 -0.203125 0.640625 -0.328125 C 0.484375 -0.460938 0.367188 -0.609375 0.296875 -0.765625 L 0.6875 -1.171875 L 0.78125 -1.171875 C 0.914062 -0.953125 1.085938 -0.785156 1.296875 -0.671875 C 1.503906 -0.554688 1.75 -0.5 2.03125 -0.5 C 2.351562 -0.5 2.597656 -0.5625 2.765625 -0.6875 C 2.941406 -0.820312 3.03125 -1.003906 3.03125 -1.234375 C 3.03125 -1.398438 2.976562 -1.539062 2.875 -1.65625 C 2.769531 -1.769531 2.601562 -1.859375 2.375 -1.921875 L 1.625 -2.109375 C 1.21875 -2.203125 0.921875 -2.351562 0.734375 -2.5625 C 0.554688 -2.769531 0.46875 -3.03125 0.46875 -3.34375 C 0.46875 -3.582031 0.53125 -3.789062 0.65625 -3.96875 C 0.78125 -4.144531 0.957031 -4.28125 1.1875 -4.375 C 1.414062 -4.476562 1.691406 -4.53125 2.015625 -4.53125 C 2.421875 -4.53125 2.738281 -4.472656 2.96875 -4.359375 C 3.207031 -4.242188 3.394531 -4.082031 3.53125 -3.875 L 3.15625 -3.515625 L 3.078125 -3.515625 C 2.941406 -3.679688 2.785156 -3.800781 2.609375 -3.875 C 2.441406 -3.945312 2.242188 -3.984375 2.015625 -3.984375 C 1.722656 -3.984375 1.5 -3.929688 1.34375 -3.828125 C 1.1875 -3.722656 1.109375 -3.570312 1.109375 -3.375 C 1.109375 -3.1875 1.160156 -3.035156 1.265625 -2.921875 C 1.378906 -2.816406 1.578125 -2.734375 1.859375 -2.671875 L 2.59375 -2.484375 C 2.976562 -2.398438 3.253906 -2.25 3.421875 -2.03125 C 3.597656 -1.820312 3.6875 -1.554688 3.6875 -1.234375 C 3.6875 -0.972656 3.625 -0.742188 3.5 -0.546875 C 3.375 -0.347656 3.1875 -0.191406 2.9375 -0.078125 C 2.6875 0.0234375 2.382812 0.078125 2.03125 0.078125 Z M 2.03125 0.078125 "/></g></g><g transform="translate(20.304392, 36.064102)"><g><path d="M 2.546875 0.078125 C 2.160156 0.078125 1.8125 -0.0078125 1.5 -0.1875 C 1.1875 -0.363281 0.9375 -0.625 0.75 -0.96875 C 0.570312 -1.320312 0.484375 -1.738281 0.484375 -2.21875 C 0.484375 -2.707031 0.570312 -3.125 0.75 -3.46875 C 0.9375 -3.8125 1.1875 -4.070312 1.5 -4.25 C 1.8125 -4.4375 2.160156 -4.53125 2.546875 -4.53125 C 3.015625 -4.53125 3.390625 -4.441406 3.671875 -4.265625 C 3.953125 -4.085938 4.15625 -3.847656 4.28125 -3.546875 L 3.828125 -3.234375 L 3.75 -3.234375 C 3.625 -3.472656 3.46875 -3.648438 3.28125 -3.765625 C 3.09375 -3.878906 2.847656 -3.9375 2.546875 -3.9375 C 2.273438 -3.9375 2.035156 -3.867188 1.828125 -3.734375 C 1.617188 -3.609375 1.457031 -3.414062 1.34375 -3.15625 C 1.226562 -2.90625 1.171875 -2.59375 1.171875 -2.21875 C 1.171875 -1.84375 1.226562 -1.523438 1.34375 -1.265625 C 1.457031 -1.015625 1.617188 -0.820312 1.828125 -0.6875 C 2.035156 -0.5625 2.273438 -0.5 2.546875 -0.5 C 2.859375 -0.5 3.113281 -0.566406 3.3125 -0.703125 C 3.519531 -0.847656 3.679688 -1.070312 3.796875 -1.375 L 3.875 -1.375 L 4.3125 -1.125 C 4.195312 -0.75 3.988281 -0.453125 3.6875 -0.234375 C 3.394531 -0.0234375 3.015625 0.078125 2.546875 0.078125 Z M 2.546875 0.078125 "/></g></g><g transform="translate(24.882368, 36.064102)"><g><path d="M 1.109375 -5.296875 C 0.960938 -5.296875 0.84375 -5.335938 0.75 -5.421875 C 0.664062 -5.515625 0.625 -5.628906 0.625 -5.765625 C 0.625 -5.898438 0.664062 -6.007812 0.75 -6.09375 C 0.84375 -6.1875 0.960938 -6.234375 1.109375 -6.234375 C 1.242188 -6.234375 1.351562 -6.1875 1.4375 -6.09375 C 1.53125 -6.007812 1.578125 -5.898438 1.578125 -5.765625 C 1.578125 -5.628906 1.53125 -5.515625 1.4375 -5.421875 C 1.351562 -5.335938 1.242188 -5.296875 1.109375 -5.296875 Z M 0.78125 0 L 0.78125 -4.4375 L 1.4375 -4.4375 L 1.4375 0 Z M 0.78125 0 "/></g></g><g transform="translate(27.084789, 36.064102)"><g><path d="M 4.234375 -2.078125 L 1.1875 -2.078125 C 1.195312 -1.535156 1.320312 -1.132812 1.5625 -0.875 C 1.800781 -0.625 2.132812 -0.5 2.5625 -0.5 C 2.875 -0.5 3.125 -0.554688 3.3125 -0.671875 C 3.507812 -0.785156 3.664062 -0.960938 3.78125 -1.203125 L 3.859375 -1.203125 L 4.296875 -0.953125 C 4.160156 -0.628906 3.953125 -0.375 3.671875 -0.1875 C 3.390625 -0.0078125 3.019531 0.078125 2.5625 0.078125 C 2.125 0.078125 1.75 -0.00390625 1.4375 -0.171875 C 1.132812 -0.335938 0.898438 -0.59375 0.734375 -0.9375 C 0.566406 -1.28125 0.484375 -1.707031 0.484375 -2.21875 C 0.484375 -2.726562 0.570312 -3.15625 0.75 -3.5 C 0.925781 -3.84375 1.164062 -4.097656 1.46875 -4.265625 C 1.769531 -4.441406 2.117188 -4.53125 2.515625 -4.53125 C 3.085938 -4.53125 3.53125 -4.367188 3.84375 -4.046875 C 4.164062 -3.722656 4.328125 -3.25 4.328125 -2.625 C 4.328125 -2.375 4.320312 -2.207031 4.3125 -2.125 Z M 3.6875 -2.625 C 3.675781 -3.09375 3.570312 -3.429688 3.375 -3.640625 C 3.175781 -3.859375 2.890625 -3.96875 2.515625 -3.96875 C 2.128906 -3.96875 1.820312 -3.859375 1.59375 -3.640625 C 1.375 -3.429688 1.242188 -3.09375 1.203125 -2.625 Z M 3.6875 -2.625 "/></g></g><g transform="translate(31.819794, 36.064102)"><g><path d="M 0.78125 0 L 0.78125 -4.4375 L 1.390625 -4.4375 L 1.390625 -3.75 L 1.484375 -3.71875 C 1.628906 -3.976562 1.816406 -4.175781 2.046875 -4.3125 C 2.273438 -4.457031 2.554688 -4.53125 2.890625 -4.53125 C 3.421875 -4.53125 3.804688 -4.390625 4.046875 -4.109375 C 4.285156 -3.835938 4.40625 -3.421875 4.40625 -2.859375 L 4.40625 0 L 3.75 0 L 3.75 -2.84375 C 3.75 -3.113281 3.710938 -3.328125 3.640625 -3.484375 C 3.578125 -3.648438 3.472656 -3.769531 3.328125 -3.84375 C 3.191406 -3.914062 3.003906 -3.953125 2.765625 -3.953125 C 2.367188 -3.953125 2.046875 -3.816406 1.796875 -3.546875 C 1.554688 -3.285156 1.4375 -2.863281 1.4375 -2.28125 L 1.4375 0 Z M 0.78125 0 "/></g></g><g transform="translate(36.933276, 36.064102)"><g><path d="M 3 -0.703125 L 3.21875 -0.234375 C 3.113281 -0.128906 2.972656 -0.0507812 2.796875 0 C 2.628906 0.0507812 2.445312 0.078125 2.25 0.078125 C 1.394531 0.078125 0.96875 -0.347656 0.96875 -1.203125 L 0.96875 -3.90625 L 0.203125 -3.90625 L 0.203125 -4.453125 L 0.96875 -4.453125 L 0.96875 -5.390625 L 1.625 -5.5 L 1.625 -4.453125 L 3.0625 -4.453125 L 3.0625 -3.90625 L 1.625 -3.90625 L 1.625 -1.265625 C 1.625 -0.753906 1.847656 -0.5 2.296875 -0.5 C 2.535156 -0.5 2.742188 -0.566406 2.921875 -0.703125 Z M 3 -0.703125 "/></g></g><g transform="translate(40.315422, 36.064102)"><g><path d="M 1.109375 -5.296875 C 0.960938 -5.296875 0.84375 -5.335938 0.75 -5.421875 C 0.664062 -5.515625 0.625 -5.628906 0.625 -5.765625 C 0.625 -5.898438 0.664062 -6.007812 0.75 -6.09375 C 0.84375 -6.1875 0.960938 -6.234375 1.109375 -6.234375 C 1.242188 -6.234375 1.351562 -6.1875 1.4375 -6.09375 C 1.53125 -6.007812 1.578125 -5.898438 1.578125 -5.765625 C 1.578125 -5.628906 1.53125 -5.515625 1.4375 -5.421875 C 1.351562 -5.335938 1.242188 -5.296875 1.109375 -5.296875 Z M 0.78125 0 L 0.78125 -4.4375 L 1.4375 -4.4375 L 1.4375 0 Z M 0.78125 0 "/></g></g><g transform="translate(42.517843, 36.064102)"><g><path d="M 2.546875 0.078125 C 2.128906 0.078125 1.765625 -0.0078125 1.453125 -0.1875 C 1.140625 -0.363281 0.898438 -0.625 0.734375 -0.96875 C 0.566406 -1.3125 0.484375 -1.726562 0.484375 -2.21875 C 0.484375 -2.707031 0.566406 -3.125 0.734375 -3.46875 C 0.898438 -3.820312 1.140625 -4.085938 1.453125 -4.265625 C 1.765625 -4.441406 2.128906 -4.53125 2.546875 -4.53125 C 2.960938 -4.53125 3.328125 -4.441406 3.640625 -4.265625 C 3.953125 -4.085938 4.191406 -3.820312 4.359375 -3.46875 C 4.523438 -3.125 4.609375 -2.707031 4.609375 -2.21875 C 4.609375 -1.726562 4.523438 -1.3125 4.359375 -0.96875 C 4.191406 -0.625 3.953125 -0.363281 3.640625 -0.1875 C 3.328125 -0.0078125 2.960938 0.078125 2.546875 0.078125 Z M 2.546875 -0.5 C 2.992188 -0.5 3.332031 -0.640625 3.5625 -0.921875 C 3.800781 -1.203125 3.921875 -1.632812 3.921875 -2.21875 C 3.921875 -2.8125 3.800781 -3.242188 3.5625 -3.515625 C 3.332031 -3.796875 2.992188 -3.9375 2.546875 -3.9375 C 2.109375 -3.9375 1.769531 -3.796875 1.53125 -3.515625 C 1.289062 -3.234375 1.171875 -2.800781 1.171875 -2.21875 C 1.171875 -1.632812 1.289062 -1.203125 1.53125 -0.921875 C 1.769531 -0.640625 2.109375 -0.5 2.546875 -0.5 Z M 2.546875 -0.5 "/></g></g><g transform="translate(47.61522, 36.064102)"><g><path d="M 2.203125 0.078125 C 1.691406 0.078125 1.3125 -0.0507812 1.0625 -0.3125 C 0.820312 -0.582031 0.703125 -0.972656 0.703125 -1.484375 L 0.703125 -4.4375 L 1.359375 -4.4375 L 1.359375 -1.5 C 1.359375 -0.820312 1.675781 -0.484375 2.3125 -0.484375 C 2.71875 -0.484375 3.035156 -0.613281 3.265625 -0.875 C 3.503906 -1.144531 3.625 -1.570312 3.625 -2.15625 L 3.625 -4.4375 L 4.28125 -4.4375 L 4.28125 0 L 3.65625 0 L 3.65625 -0.703125 L 3.5625 -0.71875 C 3.414062 -0.445312 3.234375 -0.242188 3.015625 -0.109375 C 2.804688 0.015625 2.535156 0.078125 2.203125 0.078125 Z M 2.203125 0.078125 "/></g></g><g transform="translate(52.660254, 36.064102)"><g><path d="M 2.03125 0.078125 C 1.75 0.078125 1.488281 0.0390625 1.25 -0.03125 C 1.007812 -0.101562 0.804688 -0.203125 0.640625 -0.328125 C 0.484375 -0.460938 0.367188 -0.609375 0.296875 -0.765625 L 0.6875 -1.171875 L 0.78125 -1.171875 C 0.914062 -0.953125 1.085938 -0.785156 1.296875 -0.671875 C 1.503906 -0.554688 1.75 -0.5 2.03125 -0.5 C 2.351562 -0.5 2.597656 -0.5625 2.765625 -0.6875 C 2.941406 -0.820312 3.03125 -1.003906 3.03125 -1.234375 C 3.03125 -1.398438 2.976562 -1.539062 2.875 -1.65625 C 2.769531 -1.769531 2.601562 -1.859375 2.375 -1.921875 L 1.625 -2.109375 C 1.21875 -2.203125 0.921875 -2.351562 0.734375 -2.5625 C 0.554688 -2.769531 0.46875 -3.03125 0.46875 -3.34375 C 0.46875 -3.582031 0.53125 -3.789062 0.65625 -3.96875 C 0.78125 -4.144531 0.957031 -4.28125 1.1875 -4.375 C 1.414062 -4.476562 1.691406 -4.53125 2.015625 -4.53125 C 2.421875 -4.53125 2.738281 -4.472656 2.96875 -4.359375 C 3.207031 -4.242188 3.394531 -4.082031 3.53125 -3.875 L 3.15625 -3.515625 L 3.078125 -3.515625 C 2.941406 -3.679688 2.785156 -3.800781 2.609375 -3.875 C 2.441406 -3.945312 2.242188 -3.984375 2.015625 -3.984375 C 1.722656 -3.984375 1.5 -3.929688 1.34375 -3.828125 C 1.1875 -3.722656 1.109375 -3.570312 1.109375 -3.375 C 1.109375 -3.1875 1.160156 -3.035156 1.265625 -2.921875 C 1.378906 -2.816406 1.578125 -2.734375 1.859375 -2.671875 L 2.59375 -2.484375 C 2.976562 -2.398438 3.253906 -2.25 3.421875 -2.03125 C 3.597656 -1.820312 3.6875 -1.554688 3.6875 -1.234375 C 3.6875 -0.972656 3.625 -0.742188 3.5 -0.546875 C 3.375 -0.347656 3.1875 -0.191406 2.9375 -0.078125 C 2.6875 0.0234375 2.382812 0.078125 2.03125 0.078125 Z M 2.03125 0.078125 "/></g></g><g transform="translate(56.767145, 36.064102)"><g/></g><g transform="translate(58.78838, 36.064102)"><g><path d="M 1.609375 -1.953125 L 0.9375 -1.953125 L 0.9375 -5.890625 L 1.609375 -5.890625 Z M 1.265625 0.046875 C 1.117188 0.046875 1 0.00390625 0.90625 -0.078125 C 0.820312 -0.171875 0.78125 -0.289062 0.78125 -0.4375 C 0.78125 -0.570312 0.820312 -0.679688 0.90625 -0.765625 C 1 -0.859375 1.117188 -0.90625 1.265625 -0.90625 C 1.421875 -0.90625 1.539062 -0.863281 1.625 -0.78125 C 1.71875 -0.695312 1.765625 -0.582031 1.765625 -0.4375 C 1.765625 -0.289062 1.71875 -0.171875 1.625 -0.078125 C 1.539062 0.00390625 1.421875 0.046875 1.265625 0.046875 Z M 1.265625 0.046875 "/></g></g></g></g></svg>