<svg xmlns="http://www.w3.org/2000/svg" xmlns:xlink="http://www.w3.org/1999/xlink" width="450" zoomAndPan="magnify" viewBox="0 0 337.5 89.999999" height="120" preserveAspectRatio="xMidYMid meet" version="1.0"><defs><g/><clipPath id="01322508af"><path d="M 0.09375 10.914062 L 37 10.914062 L 37 48 L 0.09375 48 Z M 0.09375 10.914062 " clip-rule="nonzero"/></clipPath><clipPath id="bcc6df9b68"><path d="M 41 10.914062 L 78 10.914062 L 78 48 L 41 48 Z M 41 10.914062 " clip-rule="nonzero"/></clipPath><clipPath id="ba959b2b7a"><path d="M 81 11 L 81.0625 11 L 81.0625 47 L 81 47 Z M 81 11 " clip-rule="nonzero"/></clipPath></defs><g clip-path="url(#01322508af)"><path fill="#fff334" d="M 13.496094 11.496094 C 7.324219 12.980469 2.363281 17.816406 0.519531 24.160156 C -0.34375 27.238281 0.171875 34.5625 1.441406 37.277344 C 2.480469 39.535156 4.785156 42.59375 6.34375 43.804688 C 7.785156 44.898438 10.613281 46.289062 12.800781 46.929688 C 15.457031 47.679688 20.585938 47.679688 23.472656 46.90625 C 30.96875 44.875 36.445312 37.960938 36.5625 30.34375 C 36.621094 25.4375 34.945312 22.628906 30.96875 20.917969 C 29.757812 20.417969 28.949219 20.304688 26.816406 20.304688 C 24.507812 20.304688 23.933594 20.417969 21.683594 21.285156 C 16.4375 23.359375 13.898438 26.554688 13.4375 31.484375 C 13.207031 34.539062 13.265625 34.859375 14.359375 35.542969 C 14.992188 35.933594 15.972656 36.273438 16.4375 36.273438 C 17.820312 36.273438 18.339844 35.40625 18.972656 32.234375 C 19.609375 28.882812 20.703125 27.398438 23.183594 26.578125 C 25.375 25.847656 26.699219 25.847656 28.199219 26.578125 C 32.8125 28.925781 29.988281 37.253906 23.527344 40.175781 C 19.320312 42.046875 13.378906 41.316406 10.207031 38.554688 C 7.324219 36.023438 6.171875 33.285156 6.171875 29.203125 C 6.171875 22.90625 9.457031 18.796875 15.742188 17.246094 C 16.667969 17.019531 17.761719 16.492188 18.222656 16.082031 C 19.78125 14.601562 18.742188 11.15625 16.667969 10.996094 C 16.207031 10.972656 14.820312 11.199219 13.496094 11.496094 Z M 13.496094 11.496094 " fill-opacity="1" fill-rule="nonzero"/></g><g clip-path="url(#bcc6df9b68)"><path fill="#fff334" d="M 54.382812 11.609375 C 49.769531 12.933594 46.710938 15.214844 44.117188 19.207031 C 40.828125 24.386719 40.828125 34.0625 44.117188 39.195312 C 46.710938 43.210938 49.769531 45.46875 54.382812 46.792969 C 57.496094 47.679688 61.820312 47.726562 65.050781 46.882812 C 69.71875 45.671875 74.160156 41.953125 76.523438 37.300781 C 78.023438 34.3125 78.023438 24.089844 76.523438 21.101562 C 74.160156 16.449219 69.71875 12.730469 65.050781 11.519531 C 61.820312 10.675781 57.496094 10.722656 54.382812 11.609375 Z M 62.683594 17.566406 C 68.625 18.980469 71.738281 23.0625 71.679688 29.316406 C 71.679688 35.796875 68.046875 40.015625 61.703125 41.066406 C 58.1875 41.636719 54.207031 40.5625 51.671875 38.304688 C 46.539062 33.789062 46.480469 24.546875 51.613281 20.144531 C 53.34375 18.636719 54.382812 18.136719 56.804688 17.542969 C 58.996094 16.996094 60.378906 16.996094 62.683594 17.566406 Z M 62.683594 17.566406 " fill-opacity="1" fill-rule="nonzero"/></g><g clip-path="url(#ba959b2b7a)"><path fill="#fcfbf3" d="M 90.25 11.792969 C 81.425781 12.636719 78.660156 25.847656 86.328125 30.523438 C 88.230469 31.664062 91 32.167969 95.382812 32.167969 C 97.402344 32.167969 98.84375 32.28125 99.363281 32.507812 C 100.976562 33.125 101.785156 34.539062 101.726562 36.503906 C 101.667969 38.601562 100.574219 39.96875 98.667969 40.378906 C 98.035156 40.496094 94.574219 40.609375 91 40.609375 C 87.425781 40.609375 84.195312 40.699219 83.792969 40.792969 C 81.714844 41.316406 81.425781 45.082031 83.332031 46.242188 L 84.308594 46.8125 L 92.269531 46.722656 C 99.878906 46.65625 100.34375 46.632812 101.785156 46.085938 C 103.859375 45.332031 105.707031 43.824219 107.03125 41.863281 C 108.414062 39.832031 108.589844 33.011719 107.320312 31.027344 C 106.109375 29.203125 104.089844 27.511719 102.128906 26.714844 C 100.515625 26.054688 100.113281 26.007812 96.132812 26.007812 C 92.441406 26.007812 91.75 25.9375 90.652344 25.484375 C 89.039062 24.796875 88 22.628906 88.519531 20.917969 C 89.328125 18.042969 90.078125 17.792969 97.691406 17.792969 C 105.300781 17.792969 105.242188 17.816406 105.242188 14.667969 C 105.242188 11.632812 105.1875 11.632812 97.226562 11.65625 C 94 11.679688 90.882812 11.726562 90.25 11.792969 Z M 90.25 11.792969 " fill-opacity="1" fill-rule="nonzero"/></g><g fill="#ffffff" fill-opacity="1"><g transform="translate(81.003055, 43.207426)"><g><path d="M 36.046875 0 L 30.671875 0 L 23.3125 -24.234375 L 15.84375 0 L 10.4375 0 L 0.140625 -31.078125 L 5.765625 -31.078125 L 13.3125 -5.8125 L 20.8125 -31.03125 L 25.96875 -31.078125 L 33.515625 -5.8125 L 41.015625 -31.078125 L 46.4375 -31.078125 Z M 36.046875 0 "/></g></g></g><g fill="#ffffff" fill-opacity="1"><g transform="translate(126.987652, 43.207426)"><g><path d="M 26.28125 -26.375 L 9.328125 -26.375 L 9.328125 -17.984375 L 24.5 -17.984375 L 24.5 -13.265625 L 9.328125 -13.265625 L 9.328125 -4.703125 L 26.8125 -4.703125 L 26.8125 0 L 4.078125 0 L 4.078125 -31.078125 L 26.28125 -31.078125 Z M 26.28125 -26.375 "/></g></g></g><g fill="#ffffff" fill-opacity="1"><g transform="translate(156.105317, 43.207426)"><g><path d="M 9.328125 -4.75 L 22.765625 -4.75 L 22.765625 0 L 4.078125 0 L 4.078125 -31.078125 L 9.328125 -31.078125 Z M 9.328125 -4.75 "/></g></g></g><g fill="#ffffff" fill-opacity="1"><g transform="translate(179.807803, 43.207426)"><g><path d="M 9.328125 -4.75 L 22.765625 -4.75 L 22.765625 0 L 4.078125 0 L 4.078125 -31.078125 L 9.328125 -31.078125 Z M 9.328125 -4.75 "/></g></g></g><g fill="#ffffff" fill-opacity="1"><g transform="translate(203.510289, 43.207426)"><g><path d="M 31.03125 0 L 25.875 0 L 9.328125 -22.28125 L 9.328125 0 L 4.078125 0 L 4.078125 -31.078125 L 9.234375 -31.078125 L 25.875 -8.75 L 25.875 -31.078125 L 31.03125 -31.078125 Z M 31.03125 0 "/></g></g></g><g fill="#ffffff" fill-opacity="1"><g transform="translate(238.664557, 43.207426)"><g><path d="M 26.28125 -26.375 L 9.328125 -26.375 L 9.328125 -17.984375 L 24.5 -17.984375 L 24.5 -13.265625 L 9.328125 -13.265625 L 9.328125 -4.703125 L 26.8125 -4.703125 L 26.8125 0 L 4.078125 0 L 4.078125 -31.078125 L 26.28125 -31.078125 Z M 26.28125 -26.375 "/></g></g></g><g fill="#ffffff" fill-opacity="1"><g transform="translate(267.782222, 43.207426)"><g><path d="M 14.296875 -31.296875 C 18.316406 -31.296875 21.941406 -30.226562 25.171875 -28.09375 L 23 -23.484375 C 19.832031 -25.410156 16.796875 -26.375 13.890625 -26.375 C 12.328125 -26.375 11.09375 -26.09375 10.1875 -25.53125 C 9.28125 -24.96875 8.828125 -24.164062 8.828125 -23.125 C 8.828125 -22.09375 9.238281 -21.210938 10.0625 -20.484375 C 10.894531 -19.765625 11.929688 -19.234375 13.171875 -18.890625 C 14.421875 -18.546875 15.769531 -18.113281 17.21875 -17.59375 C 18.675781 -17.082031 20.023438 -16.535156 21.265625 -15.953125 C 22.503906 -15.378906 23.53125 -14.476562 24.34375 -13.25 C 25.15625 -12.019531 25.5625 -10.535156 25.5625 -8.796875 C 25.5625 -6.066406 24.472656 -3.890625 22.296875 -2.265625 C 20.128906 -0.640625 17.3125 0.171875 13.84375 0.171875 C 11.476562 0.171875 9.1875 -0.269531 6.96875 -1.15625 C 4.75 -2.039062 2.8125 -3.238281 1.15625 -4.75 L 3.421875 -9.28125 C 4.984375 -7.832031 6.703125 -6.710938 8.578125 -5.921875 C 10.460938 -5.140625 12.25 -4.75 13.9375 -4.75 C 15.769531 -4.75 17.195312 -5.082031 18.21875 -5.75 C 19.238281 -6.414062 19.75 -7.335938 19.75 -8.515625 C 19.75 -9.585938 19.332031 -10.484375 18.5 -11.203125 C 17.675781 -11.929688 16.644531 -12.460938 15.40625 -12.796875 C 14.164062 -13.140625 12.816406 -13.554688 11.359375 -14.046875 C 9.910156 -14.535156 8.5625 -15.050781 7.3125 -15.59375 C 6.070312 -16.144531 5.035156 -17.023438 4.203125 -18.234375 C 3.378906 -19.453125 2.96875 -20.921875 2.96875 -22.640625 C 2.96875 -25.273438 4.003906 -27.375 6.078125 -28.9375 C 8.148438 -30.507812 10.890625 -31.296875 14.296875 -31.296875 Z M 14.296875 -31.296875 "/></g></g></g><g fill="#ffffff" fill-opacity="1"><g transform="translate(295.39075, 43.207426)"><g><path d="M 14.296875 -31.296875 C 18.316406 -31.296875 21.941406 -30.226562 25.171875 -28.09375 L 23 -23.484375 C 19.832031 -25.410156 16.796875 -26.375 13.890625 -26.375 C 12.328125 -26.375 11.09375 -26.09375 10.1875 -25.53125 C 9.28125 -24.96875 8.828125 -24.164062 8.828125 -23.125 C 8.828125 -22.09375 9.238281 -21.210938 10.0625 -20.484375 C 10.894531 -19.765625 11.929688 -19.234375 13.171875 -18.890625 C 14.421875 -18.546875 15.769531 -18.113281 17.21875 -17.59375 C 18.675781 -17.082031 20.023438 -16.535156 21.265625 -15.953125 C 22.503906 -15.378906 23.53125 -14.476562 24.34375 -13.25 C 25.15625 -12.019531 25.5625 -10.535156 25.5625 -8.796875 C 25.5625 -6.066406 24.472656 -3.890625 22.296875 -2.265625 C 20.128906 -0.640625 17.3125 0.171875 13.84375 0.171875 C 11.476562 0.171875 9.1875 -0.269531 6.96875 -1.15625 C 4.75 -2.039062 2.8125 -3.238281 1.15625 -4.75 L 3.421875 -9.28125 C 4.984375 -7.832031 6.703125 -6.710938 8.578125 -5.921875 C 10.460938 -5.140625 12.25 -4.75 13.9375 -4.75 C 15.769531 -4.75 17.195312 -5.082031 18.21875 -5.75 C 19.238281 -6.414062 19.75 -7.335938 19.75 -8.515625 C 19.75 -9.585938 19.332031 -10.484375 18.5 -11.203125 C 17.675781 -11.929688 16.644531 -12.460938 15.40625 -12.796875 C 14.164062 -13.140625 12.816406 -13.554688 11.359375 -14.046875 C 9.910156 -14.535156 8.5625 -15.050781 7.3125 -15.59375 C 6.070312 -16.144531 5.035156 -17.023438 4.203125 -18.234375 C 3.378906 -19.453125 2.96875 -20.921875 2.96875 -22.640625 C 2.96875 -25.273438 4.003906 -27.375 6.078125 -28.9375 C 8.148438 -30.507812 10.890625 -31.296875 14.296875 -31.296875 Z M 14.296875 -31.296875 "/></g></g></g><g fill="#fcfbf3" fill-opacity="1"><g transform="translate(3.259202, 84.470267)"><g><path d="M 11.078125 -1.890625 C 10.472656 -1.179688 9.773438 -0.65625 8.984375 -0.3125 C 8.203125 0.03125 7.335938 0.203125 6.390625 0.203125 C 5.796875 0.191406 5.25 0.0976562 4.75 -0.078125 C 4.25 -0.253906 3.800781 -0.492188 3.40625 -0.796875 C 3.007812 -1.109375 2.660156 -1.472656 2.359375 -1.890625 C 2.066406 -2.304688 1.816406 -2.753906 1.609375 -3.234375 C 1.410156 -3.722656 1.257812 -4.234375 1.15625 -4.765625 C 1.050781 -5.304688 1 -5.847656 1 -6.390625 L 1 -8.0625 C 1 -8.601562 1.039062 -9.140625 1.125 -9.671875 C 1.21875 -10.203125 1.359375 -10.710938 1.546875 -11.203125 C 1.734375 -11.691406 1.960938 -12.144531 2.234375 -12.5625 C 2.515625 -12.988281 2.847656 -13.351562 3.234375 -13.65625 C 3.628906 -13.96875 4.070312 -14.210938 4.5625 -14.390625 C 5.050781 -14.566406 5.597656 -14.65625 6.203125 -14.65625 C 6.878906 -14.65625 7.503906 -14.550781 8.078125 -14.34375 C 8.648438 -14.132812 9.144531 -13.835938 9.5625 -13.453125 C 9.988281 -13.066406 10.328125 -12.597656 10.578125 -12.046875 C 10.835938 -11.503906 11 -10.894531 11.0625 -10.21875 L 9.25 -10.21875 C 9.175781 -10.632812 9.0625 -11.019531 8.90625 -11.375 C 8.757812 -11.726562 8.5625 -12.03125 8.3125 -12.28125 C 8.0625 -12.539062 7.765625 -12.738281 7.421875 -12.875 C 7.078125 -13.019531 6.675781 -13.09375 6.21875 -13.09375 C 5.78125 -13.09375 5.390625 -13.015625 5.046875 -12.859375 C 4.710938 -12.710938 4.421875 -12.515625 4.171875 -12.265625 C 3.921875 -12.015625 3.710938 -11.722656 3.546875 -11.390625 C 3.378906 -11.054688 3.242188 -10.703125 3.140625 -10.328125 C 3.035156 -9.960938 2.957031 -9.585938 2.90625 -9.203125 C 2.863281 -8.816406 2.84375 -8.441406 2.84375 -8.078125 L 2.84375 -6.390625 C 2.84375 -6.023438 2.867188 -5.644531 2.921875 -5.25 C 2.984375 -4.863281 3.070312 -4.484375 3.1875 -4.109375 C 3.3125 -3.742188 3.46875 -3.394531 3.65625 -3.0625 C 3.84375 -2.738281 4.066406 -2.445312 4.328125 -2.1875 C 4.585938 -1.9375 4.890625 -1.738281 5.234375 -1.59375 C 5.578125 -1.445312 5.96875 -1.367188 6.40625 -1.359375 C 6.65625 -1.347656 6.914062 -1.359375 7.1875 -1.390625 C 7.46875 -1.421875 7.738281 -1.472656 8 -1.546875 C 8.257812 -1.628906 8.5 -1.738281 8.71875 -1.875 C 8.945312 -2.007812 9.132812 -2.1875 9.28125 -2.40625 L 9.3125 -5.65625 L 6.375 -5.65625 L 6.375 -7.203125 L 11.0625 -7.203125 Z M 11.078125 -1.890625 "/></g></g><g transform="translate(15.471274, 84.470267)"><g><path d="M 5.984375 -7.203125 L 9.28125 -14.46875 L 11.375 -14.46875 L 6.875 -5.390625 L 6.84375 0 L 5.140625 0 L 5.109375 -5.390625 L 0.609375 -14.46875 L 2.703125 -14.46875 Z M 5.984375 -7.203125 "/></g></g><g transform="translate(27.683347, 84.470267)"><g><path d="M 8.625 -3.75 L 3.796875 -3.75 L 2.640625 0 L 0.796875 0 L 5.46875 -14.46875 L 7.015625 -14.46875 L 11.609375 0 L 9.78125 0 Z M 4.296875 -5.34375 L 8.140625 -5.34375 L 6.234375 -11.625 Z M 4.296875 -5.34375 "/></g></g><g transform="translate(39.895419, 84.470267)"><g><path d="M 10.78125 0 L 8.921875 0 L 3.3125 -10.8125 L 3.28125 0 L 1.421875 0 L 1.421875 -14.46875 L 3.28125 -14.46875 L 8.90625 -3.671875 L 8.9375 -14.46875 L 10.78125 -14.46875 Z M 10.78125 0 "/></g></g><g transform="translate(52.107491, 84.470267)"><g><path d="M 5.984375 -7.203125 L 9.28125 -14.46875 L 11.375 -14.46875 L 6.875 -5.390625 L 6.84375 0 L 5.140625 0 L 5.109375 -5.390625 L 0.609375 -14.46875 L 2.703125 -14.46875 Z M 5.984375 -7.203125 "/></g></g><g transform="translate(64.319563, 84.470267)"><g><path d="M 11.140625 -6.390625 C 11.128906 -5.878906 11.082031 -5.359375 11 -4.828125 C 10.914062 -4.304688 10.785156 -3.800781 10.609375 -3.3125 C 10.441406 -2.820312 10.222656 -2.363281 9.953125 -1.9375 C 9.691406 -1.507812 9.375 -1.132812 9 -0.8125 C 8.625 -0.5 8.195312 -0.25 7.71875 -0.0625 C 7.238281 0.113281 6.703125 0.203125 6.109375 0.203125 C 5.515625 0.203125 4.976562 0.113281 4.5 -0.0625 C 4.019531 -0.25 3.59375 -0.5 3.21875 -0.8125 C 2.84375 -1.132812 2.519531 -1.507812 2.25 -1.9375 C 1.976562 -2.363281 1.753906 -2.820312 1.578125 -3.3125 C 1.410156 -3.800781 1.28125 -4.304688 1.1875 -4.828125 C 1.101562 -5.359375 1.054688 -5.878906 1.046875 -6.390625 L 1.046875 -8.046875 C 1.054688 -8.566406 1.101562 -9.085938 1.1875 -9.609375 C 1.269531 -10.140625 1.398438 -10.648438 1.578125 -11.140625 C 1.753906 -11.628906 1.972656 -12.085938 2.234375 -12.515625 C 2.503906 -12.941406 2.820312 -13.3125 3.1875 -13.625 C 3.5625 -13.945312 3.988281 -14.195312 4.46875 -14.375 C 4.945312 -14.5625 5.488281 -14.65625 6.09375 -14.65625 C 6.6875 -14.65625 7.222656 -14.5625 7.703125 -14.375 C 8.191406 -14.195312 8.617188 -13.945312 8.984375 -13.625 C 9.359375 -13.3125 9.675781 -12.941406 9.9375 -12.515625 C 10.207031 -12.085938 10.429688 -11.628906 10.609375 -11.140625 C 10.785156 -10.648438 10.914062 -10.140625 11 -9.609375 C 11.082031 -9.085938 11.128906 -8.566406 11.140625 -8.046875 Z M 9.3125 -8.0625 C 9.3125 -8.40625 9.289062 -8.765625 9.25 -9.140625 C 9.207031 -9.515625 9.140625 -9.882812 9.046875 -10.25 C 8.953125 -10.625 8.820312 -10.976562 8.65625 -11.3125 C 8.5 -11.644531 8.300781 -11.9375 8.0625 -12.1875 C 7.820312 -12.445312 7.539062 -12.648438 7.21875 -12.796875 C 6.894531 -12.941406 6.519531 -13.015625 6.09375 -13.015625 C 5.664062 -13.015625 5.289062 -12.9375 4.96875 -12.78125 C 4.644531 -12.632812 4.363281 -12.429688 4.125 -12.171875 C 3.882812 -11.921875 3.679688 -11.628906 3.515625 -11.296875 C 3.359375 -10.960938 3.234375 -10.609375 3.140625 -10.234375 C 3.046875 -9.867188 2.976562 -9.5 2.9375 -9.125 C 2.894531 -8.757812 2.867188 -8.40625 2.859375 -8.0625 L 2.859375 -6.390625 C 2.867188 -6.054688 2.894531 -5.703125 2.9375 -5.328125 C 2.976562 -4.953125 3.046875 -4.578125 3.140625 -4.203125 C 3.242188 -3.835938 3.375 -3.484375 3.53125 -3.140625 C 3.695312 -2.804688 3.894531 -2.507812 4.125 -2.25 C 4.363281 -2 4.644531 -1.796875 4.96875 -1.640625 C 5.300781 -1.492188 5.679688 -1.421875 6.109375 -1.421875 C 6.535156 -1.421875 6.910156 -1.492188 7.234375 -1.640625 C 7.566406 -1.796875 7.847656 -2 8.078125 -2.25 C 8.316406 -2.507812 8.515625 -2.804688 8.671875 -3.140625 C 8.828125 -3.472656 8.953125 -3.820312 9.046875 -4.1875 C 9.148438 -4.5625 9.21875 -4.9375 9.25 -5.3125 C 9.289062 -5.6875 9.3125 -6.046875 9.3125 -6.390625 Z M 9.3125 -8.0625 "/></g></g><g transform="translate(76.531635, 84.470267)"><g><path d="M 11.078125 -1.890625 C 10.472656 -1.179688 9.773438 -0.65625 8.984375 -0.3125 C 8.203125 0.03125 7.335938 0.203125 6.390625 0.203125 C 5.796875 0.191406 5.25 0.0976562 4.75 -0.078125 C 4.25 -0.253906 3.800781 -0.492188 3.40625 -0.796875 C 3.007812 -1.109375 2.660156 -1.472656 2.359375 -1.890625 C 2.066406 -2.304688 1.816406 -2.753906 1.609375 -3.234375 C 1.410156 -3.722656 1.257812 -4.234375 1.15625 -4.765625 C 1.050781 -5.304688 1 -5.847656 1 -6.390625 L 1 -8.0625 C 1 -8.601562 1.039062 -9.140625 1.125 -9.671875 C 1.21875 -10.203125 1.359375 -10.710938 1.546875 -11.203125 C 1.734375 -11.691406 1.960938 -12.144531 2.234375 -12.5625 C 2.515625 -12.988281 2.847656 -13.351562 3.234375 -13.65625 C 3.628906 -13.96875 4.070312 -14.210938 4.5625 -14.390625 C 5.050781 -14.566406 5.597656 -14.65625 6.203125 -14.65625 C 6.878906 -14.65625 7.503906 -14.550781 8.078125 -14.34375 C 8.648438 -14.132812 9.144531 -13.835938 9.5625 -13.453125 C 9.988281 -13.066406 10.328125 -12.597656 10.578125 -12.046875 C 10.835938 -11.503906 11 -10.894531 11.0625 -10.21875 L 9.25 -10.21875 C 9.175781 -10.632812 9.0625 -11.019531 8.90625 -11.375 C 8.757812 -11.726562 8.5625 -12.03125 8.3125 -12.28125 C 8.0625 -12.539062 7.765625 -12.738281 7.421875 -12.875 C 7.078125 -13.019531 6.675781 -13.09375 6.21875 -13.09375 C 5.78125 -13.09375 5.390625 -13.015625 5.046875 -12.859375 C 4.710938 -12.710938 4.421875 -12.515625 4.171875 -12.265625 C 3.921875 -12.015625 3.710938 -11.722656 3.546875 -11.390625 C 3.378906 -11.054688 3.242188 -10.703125 3.140625 -10.328125 C 3.035156 -9.960938 2.957031 -9.585938 2.90625 -9.203125 C 2.863281 -8.816406 2.84375 -8.441406 2.84375 -8.078125 L 2.84375 -6.390625 C 2.84375 -6.023438 2.867188 -5.644531 2.921875 -5.25 C 2.984375 -4.863281 3.070312 -4.484375 3.1875 -4.109375 C 3.3125 -3.742188 3.46875 -3.394531 3.65625 -3.0625 C 3.84375 -2.738281 4.066406 -2.445312 4.328125 -2.1875 C 4.585938 -1.9375 4.890625 -1.738281 5.234375 -1.59375 C 5.578125 -1.445312 5.96875 -1.367188 6.40625 -1.359375 C 6.65625 -1.347656 6.914062 -1.359375 7.1875 -1.390625 C 7.46875 -1.421875 7.738281 -1.472656 8 -1.546875 C 8.257812 -1.628906 8.5 -1.738281 8.71875 -1.875 C 8.945312 -2.007812 9.132812 -2.1875 9.28125 -2.40625 L 9.3125 -5.65625 L 6.375 -5.65625 L 6.375 -7.203125 L 11.0625 -7.203125 Z M 11.078125 -1.890625 "/></g></g><g transform="translate(88.743707, 84.470267)"><g><path d="M 8.625 -3.75 L 3.796875 -3.75 L 2.640625 0 L 0.796875 0 L 5.46875 -14.46875 L 7.015625 -14.46875 L 11.609375 0 L 9.78125 0 Z M 4.296875 -5.34375 L 8.140625 -5.34375 L 6.234375 -11.625 Z M 4.296875 -5.34375 "/></g></g></g></svg>