<svg width="216" height="68" viewBox="0 0 216 68" fill="none" xmlns="http://www.w3.org/2000/svg">
<path d="M33.7159 4.4014C49.8782 4.4014 63.0303 17.5536 63.0303 33.7159C63.0303 49.8782 49.8782 63.0303 33.7159 63.0303C17.5536 63.0303 4.4014 49.8782 4.4014 33.7159C4.4014 17.5536 17.5471 4.4014 33.7159 4.4014ZM33.7159 0C15.0961 0 0 15.0961 0 33.7159C0 52.3357 15.0961 67.4317 33.7159 67.4317C52.3357 67.4317 67.4317 52.3357 67.4317 33.7159C67.4317 15.0961 52.3357 0 33.7159 0Z" fill="#636262"/>
<path d="M26.1028 22.9432C28.7619 22.9432 30.9138 20.7912 30.9138 18.1322C30.9138 15.4731 28.7619 13.3212 26.1028 13.3212C23.4438 13.3212 21.2918 15.4731 21.2918 18.1322C21.2918 20.7912 23.4438 22.9432 26.1028 22.9432Z" fill="#636262"/>
<path d="M44.2545 18.3337C41.979 18.3337 40.1326 20.1801 40.1326 22.4556C40.1326 24.731 41.979 26.5774 44.2545 26.5774C46.5299 26.5774 48.3763 24.731 48.3763 22.4556C48.3763 20.1801 46.5299 18.3337 44.2545 18.3337Z" fill="#636262"/>
<path d="M42.7527 28.5213L41.836 29.4965L35.8678 35.8548L28.0272 24.731V24.6855H28.0012H27.9947H22.3515V52.7517H28.0272V33.6638L32.3116 39.6581L34.7951 43.1428L38.4683 39.541L41.836 36.2579V47.5312H47.0371V28.5213H42.8697H42.7527Z" fill="#636262"/>
<path d="M95.433 45.4085H91.8897V29.1682H91.8247L88.8861 42.0668H86.7797L83.8411 29.1682H83.7761V45.4085H80.4344V22.0232H85.0764L87.8524 34.5838H87.9174L90.6545 22.0232H95.433V45.4085Z" fill="#636262"/>
<path d="M109.372 25.2934H102.955V31.9118H108.137V35.1884H102.955V42.1383H109.372V45.415H99.4182V22.0297H109.372V25.3064V25.2934Z" fill="#636262"/>
<path d="M124.071 45.4085H120.6L115.958 29.9093H115.893V45.4085H112.551V22.0232H116.491L120.665 35.9556H120.73V22.0232H124.071V45.4085Z" fill="#636262"/>
<path d="M137.607 25.3649H133.83V45.4085H130.287V25.3649H126.509V22.0232H137.601V25.3649H137.607Z" fill="#636262"/>
<path d="M151.006 27.6014V39.8304C151.006 43.5036 148.835 45.7466 145.292 45.7466C141.748 45.7466 139.577 43.5101 139.577 39.8304V27.6014C139.577 23.9281 141.748 21.6852 145.292 21.6852C148.835 21.6852 151.006 23.9216 151.006 27.6014ZM143.12 27.6339V39.7914C143.12 41.5272 143.887 42.4634 145.292 42.4634C146.696 42.4634 147.463 41.5272 147.463 39.7914V27.6339C147.463 25.898 146.696 24.9618 145.292 24.9618C143.887 24.9618 143.12 25.898 143.12 27.6339Z" fill="#636262"/>
<path d="M162.605 45.4085L159.796 35.52H158.158V45.4085H154.615V22.0232H159.725C163.534 22.0232 165.608 24.0972 165.608 27.9394V29.6103C165.608 32.0808 164.737 33.8166 163.105 34.7528L166.343 45.4085H162.605ZM158.158 25.2934V32.2433H159.595C161.298 32.2433 162.065 31.3396 162.065 29.3697V28.167C162.065 26.1971 161.298 25.2934 159.595 25.2934H158.158Z" fill="#636262"/>
<path d="M186.393 45.4085H182.85V35.2209H178.643V45.4085H175.1V22.0232H178.643V31.8792H182.85V22.0232H186.393V45.4085Z" fill="#636262"/>
<path d="M201.132 40.1619C201.132 43.8352 199.025 45.7401 195.618 45.7401C192.212 45.7401 190.17 43.8352 190.17 40.1619V22.0232H193.577V40.0644C193.577 41.7678 194.344 42.4049 195.579 42.4049C196.815 42.4049 197.582 41.7678 197.582 40.0644V22.0232H201.125V40.1619H201.132Z" fill="#636262"/>
<path d="M215.499 27.9329V28.3685C215.499 30.9756 214.732 32.5099 212.86 33.147V33.212C215.064 33.8816 216 35.6175 216 38.6926V39.4923C216 43.3346 213.926 45.4085 210.123 45.4085H204.909V22.0232H209.85C213.523 22.0232 215.493 24.0972 215.493 27.9394L215.499 27.9329ZM208.452 25.2934V31.6712H209.557C211.261 31.6712 211.963 30.8 211.963 28.8301V28.063C211.963 26.1581 211.261 25.2869 209.726 25.2869H208.458L208.452 25.2934ZM208.452 34.9479V42.1318H209.986C211.69 42.1318 212.457 41.2281 212.457 39.2582V37.9515C212.457 35.8776 211.69 34.9479 209.817 34.9479H208.445H208.452Z" fill="#636262"/>
</svg>
