<svg width="114" height="36" viewBox="0 0 114 36" fill="none" xmlns="http://www.w3.org/2000/svg">
<path d="M17.6932 2.82366C26.0869 2.82366 32.9173 9.65409 32.9173 18.0478C32.9173 26.4415 26.0869 33.2719 17.6932 33.2719C9.29948 33.2719 2.46904 26.4415 2.46904 18.0478C2.46904 9.65409 9.2961 2.82366 17.6932 2.82366ZM17.6932 0.537842C8.02321 0.537842 0.183228 8.37782 0.183228 18.0478C0.183228 27.7178 8.02321 35.5578 17.6932 35.5578C27.3632 35.5578 35.2031 27.7178 35.2031 18.0478C35.2031 8.37782 27.3632 0.537842 17.6932 0.537842Z" fill="white"/>
<path d="M13.7395 12.4531C15.1204 12.4531 16.238 11.3355 16.238 9.95458C16.238 8.57364 15.1204 7.45605 13.7395 7.45605C12.3586 7.45605 11.241 8.57364 11.241 9.95458C11.241 11.3355 12.3586 12.4531 13.7395 12.4531Z" fill="white"/>
<path d="M23.1663 10.0593C21.9845 10.0593 21.0256 11.0182 21.0256 12.2C21.0256 13.3817 21.9845 14.3406 23.1663 14.3406C24.348 14.3406 25.3069 13.3817 25.3069 12.2C25.3069 11.0182 24.348 10.0593 23.1663 10.0593Z" fill="white"/>
<path d="M22.3866 15.35L21.9105 15.8564L18.811 19.1585L14.7391 13.3815V13.3579H14.7256H14.7222H11.7915V27.9338H14.7391V18.0207L16.9641 21.1337L18.2539 22.9435L20.1616 21.073L21.9105 19.3679V25.2225H24.6117V15.35H22.4474H22.3866Z" fill="white"/>
<path d="M51.3755 24.1202H49.5354V15.686H49.5016L47.9755 22.3848H46.8815L45.3554 15.686H45.3216V24.1202H43.5862V11.9753H45.9969L47.4386 18.4985H47.4724L48.8939 11.9753H51.3755V24.1202Z" fill="white"/>
<path d="M58.6141 13.6737H55.2816V17.1109H57.9726V18.8126H55.2816V22.4219H58.6141V24.1236H53.4448V11.9788H58.6141V13.6805V13.6737Z" fill="white"/>
<path d="M66.2483 24.1202H64.4454L62.0346 16.0709H62.0008V24.1202H60.2654V11.9753H62.3115L64.4791 19.2109H64.5129V11.9753H66.2483V24.1202Z" fill="white"/>
<path d="M73.2781 13.7108H71.3165V24.1202H69.4763V13.7108H67.5146V11.9753H73.2748V13.7108H73.2781Z" fill="white"/>
<path d="M80.2367 14.8723V21.2233C80.2367 23.131 79.109 24.2958 77.2689 24.2958C75.4287 24.2958 74.301 23.1343 74.301 21.2233V14.8723C74.301 12.9647 75.4287 11.7998 77.2689 11.7998C79.109 11.7998 80.2367 12.9613 80.2367 14.8723ZM76.1412 14.8892V21.2031C76.1412 22.1046 76.5396 22.5908 77.2689 22.5908C77.9982 22.5908 78.3966 22.1046 78.3966 21.2031V14.8892C78.3966 13.9877 77.9982 13.5015 77.2689 13.5015C76.5396 13.5015 76.1412 13.9877 76.1412 14.8892Z" fill="white"/>
<path d="M86.2602 24.1202L84.8016 18.9847H83.9507V24.1202H82.1106V11.9753H84.7644C86.743 11.9753 87.8201 13.0524 87.8201 15.0479V15.9156C87.8201 17.1986 87.3676 18.1001 86.5202 18.5863L88.2016 24.1202H86.2602ZM83.9507 13.6737V17.283H84.6969C85.5815 17.283 85.9799 16.8137 85.9799 15.7907V15.166C85.9799 14.143 85.5815 13.6737 84.6969 13.6737H83.9507Z" fill="white"/>
<path d="M98.6143 24.1202H96.7742V18.8294H94.5896V24.1202H92.7495V11.9753H94.5896V17.094H96.7742V11.9753H98.6143V24.1202Z" fill="white"/>
<path d="M106.268 21.3955C106.268 23.3031 105.174 24.2924 103.405 24.2924C101.636 24.2924 100.576 23.3031 100.576 21.3955V11.9753H102.345V21.3448C102.345 22.2294 102.743 22.5603 103.385 22.5603C104.026 22.5603 104.425 22.2294 104.425 21.3448V11.9753H106.265V21.3955H106.268Z" fill="white"/>
<path d="M113.73 15.0445V15.2707C113.73 16.6246 113.332 17.4215 112.36 17.7523V17.7861C113.504 18.1339 113.99 19.0354 113.99 20.6324V21.0477C113.99 23.0431 112.913 24.1202 110.938 24.1202H108.23V11.9753H110.796C112.704 11.9753 113.727 13.0524 113.727 15.0479L113.73 15.0445ZM110.07 13.6737V16.9859H110.644C111.529 16.9859 111.894 16.5335 111.894 15.5104V15.112C111.894 14.1227 111.529 13.6703 110.732 13.6703H110.074L110.07 13.6737ZM110.07 18.6876V22.4185H110.867C111.752 22.4185 112.15 21.9492 112.15 20.9262V20.2475C112.15 19.1704 111.752 18.6876 110.779 18.6876H110.067H110.07Z" fill="white"/>
</svg>
