<svg viewBox="233.4234 302.6786 357.1531 91.7367" width="216" height="55.48076497166061" xmlns="http://www.w3.org/2000/svg" xmlns:xlink="http://www.w3.org/1999/xlink" preserveAspectRatio="none">

  <defs>
    <filter x="0" y="0" width="1456.8" height="840" id="cc85ba1d-645c-48a6-a99a-c407fcf33b94RWrrEA-PR" filterUnits="userSpaceOnUse" primitiveUnits="userSpaceOnUse" color-interpolation-filters="sRGB">
      <feGaussianBlur in="SourceGraphic" stdDeviation="6"></feGaussianBlur>
      <feOffset dx="0" dy="-6.747332805976006" result="S60YnuQyi-"></feOffset>
      <feFlood flood-color="#2317FF" flood-opacity="1" in="S60YnuQyi-"></feFlood>
      <feComposite in2="S60YnuQyi-" operator="in" result="neAA-N0dH"></feComposite>
      <feMerge result="KjFc39DKRv">
        <feMergeNode in="neAA-N0dH"></feMergeNode>
        <feMergeNode in="SourceGraphic"></feMergeNode>
      </feMerge>
      <feGaussianBlur result="xcD-4ZyJ53" stdDeviation="7"></feGaussianBlur>
    </filter>
    <filter x="0" y="0" width="1456.8" height="840" id="cc85ba1d-645c-48a6-a99a-c407fcf33b94ikYEXSHZT" filterUnits="userSpaceOnUse" primitiveUnits="userSpaceOnUse" color-interpolation-filters="sRGB">
      <feGaussianBlur in="SourceGraphic" stdDeviation="7"></feGaussianBlur>
      <feOffset dx="0" dy="6.941524606059581" result="jed25z-Id-"></feOffset>
      <feFlood flood-color="#FF8000" flood-opacity="1" in="jed25z-Id-"></feFlood>
      <feComposite in2="jed25z-Id-" operator="in" result="ksMhG5Ol2e"></feComposite>
      <feMerge result="q53gWTKJr8">
        <feMergeNode in="ksMhG5Ol2e"></feMergeNode>
        <feMergeNode in="SourceGraphic"></feMergeNode>
      </feMerge>
      <feGaussianBlur result="T1G-oU3gxm" stdDeviation="7"></feGaussianBlur>
    </filter>

    <filter x="0" y="0" width="1456.8" height="840" id="cc85ba1d-645c-48a6-a99a-c407fcf33b94tUk6sjh6M" filterUnits="userSpaceOnUse" primitiveUnits="userSpaceOnUse" color-interpolation-filters="sRGB">
      <feGaussianBlur in="SourceGraphic" stdDeviation="6"></feGaussianBlur>
      <feOffset dx="0" dy="0" result="ok3X7D3Qro"></feOffset>
      <feFlood flood-color="#FFFFFF" flood-opacity="1" in="ok3X7D3Qro"></feFlood>
      <feComposite in2="ok3X7D3Qro" operator="in" result="a0ew4WWl5y1"></feComposite>
      <feMerge result="JvtkfG-QEg">
        <feMergeNode in="a0ew4WWl5y1"></feMergeNode>
        <feMergeNode in="SourceGraphic"></feMergeNode>
      </feMerge>
    </filter>
  </defs>

  <g filter="url(#cc85ba1d-645c-48a6-a99a-c407fcf33b94RWrrEA-PR)">
    <g opacity="1" transform="rotate(0 257.4234 328.4259)">
      <svg width="309.1531" height="33.7367" x="257.4234" y="328.4259" version="1.1" preserveAspectRatio="none" viewBox="4.3555 -32.4023 391.7851 42.753899999999994">
        <g transform="matrix(1 0 0 1 0 0)" style="fill: #2317FF;">
          <path id="id-cc85ba1d-645c-48a6-a99a-c407fcf33b94KYFLWsHjp12" d="M4.36 0L4.36-30.53L10.55-30.53L21.64-19.39L32.73-30.53L38.93-30.53L38.93 0L32.73 0L32.73-21.95L21.64-11.27L10.55-21.95L10.55 0L4.36 0Z M47.80-11.60L47.80-11.60Q47.80-13.95 48.76-16.08Q49.71-18.22 51.51-19.86Q53.31-21.50 55.92-22.48Q58.52-23.46 61.84-23.46L61.84-23.46Q65.14-23.46 67.79-22.47Q70.44-21.48 72.28-19.77Q74.13-18.05 75.12-15.72Q76.10-13.40 76.10-10.74L76.10-10.74Q76.10-10.41 76.09-10.03Q76.08-9.65 76.04-9.34L76.04-9.34L54.25-9.34Q54.62-8.30 55.45-7.44Q56.28-6.58 57.53-5.96Q58.78-5.33 60.42-4.99Q62.06-4.65 64.05-4.65L64.05-4.65Q66.04-4.65 68.02-5.07Q69.99-5.49 71.79-6.13L71.79-6.13L73.74-1.72Q72.61-1.19 71.44-0.79Q70.28-0.39 69.02-0.13Q67.76 0.14 66.38 0.27Q65.01 0.41 63.48 0.41L63.48 0.41Q59.60 0.41 56.67-0.53Q53.74-1.46 51.77-3.09Q49.79-4.71 48.80-6.89Q47.80-9.08 47.80-11.60ZM54.25-13.85L69.97-13.85Q69.66-14.80 69.00-15.63Q68.35-16.46 67.37-17.08Q66.39-17.70 65.11-18.05Q63.82-18.40 62.27-18.40L62.27-18.40Q60.63-18.40 59.29-18.03Q57.94-17.66 56.92-17.03Q55.91-16.41 55.23-15.59Q54.56-14.77 54.25-13.85L54.25-13.85Z M87.79 0L87.79-18.71L82.22-18.71L82.22-23.05L87.79-23.05L87.79-30.21L93.57-30.21L93.57-23.05L99.14-23.05L99.14-18.71L93.57-18.71L93.57 0L87.79 0Z M105.18-7.27L105.18-7.27Q105.18-8.93 105.90-10.29Q106.63-11.66 108.07-12.65Q109.52-13.63 111.67-14.17Q113.83-14.71 116.70-14.71L116.70-14.71Q118.83-14.71 121.19-14.39Q123.54-14.08 126.04-13.44L126.04-13.44Q125.94-14.53 125.38-15.46Q124.81-16.39 123.80-17.06Q122.80-17.73 121.38-18.11Q119.96-18.48 118.17-18.48L118.17-18.48Q117.19-18.48 116.02-18.36Q114.85-18.24 113.60-18.01Q112.35-17.77 111.13-17.42Q109.91-17.07 108.85-16.58L108.85-16.58L107.09-21.33Q108.40-21.80 109.90-22.19Q111.39-22.58 112.95-22.86Q114.52-23.14 116.08-23.30Q117.64-23.46 119.11-23.46L119.11-23.46Q125.57-23.46 128.71-20.16Q131.86-16.86 131.86-10.04L131.86-10.04L131.86 0L126.08 0L126.08-2.17Q125.18-1.64 124.12-1.17Q123.05-0.70 121.80-0.35Q120.55 0 119.12 0.21Q117.68 0.41 116.08 0.41L116.08 0.41Q113.38 0.41 111.34-0.18Q109.30-0.76 107.93-1.80Q106.57-2.83 105.87-4.23Q105.18-5.63 105.18-7.27ZM111.27-7.46L111.27-7.46Q111.27-6.89 111.57-6.38Q111.86-5.86 112.50-5.46Q113.15-5.06 114.15-4.81Q115.16-4.57 116.59-4.57L116.59-4.57Q118.11-4.57 119.54-4.84Q120.96-5.12 122.19-5.57Q123.42-6.02 124.42-6.60Q125.41-7.19 126.08-7.81L126.08-7.81L126.08-8.83Q124.75-9.20 123.45-9.45Q122.15-9.71 120.97-9.85Q119.79-10 118.74-10.06Q117.70-10.12 116.92-10.12L116.92-10.12Q115.30-10.12 114.22-9.90Q113.15-9.69 112.48-9.33Q111.82-8.96 111.55-8.48Q111.27-7.99 111.27-7.46Z M141.65 0L141.65-32.40L147.43-32.40L147.43 0L141.65 0Z M155.74-7.27L155.74-7.27Q155.74-8.93 156.46-10.29Q157.19-11.66 158.63-12.65Q160.08-13.63 162.24-14.17Q164.39-14.71 167.27-14.71L167.27-14.71Q169.39-14.71 171.75-14.39Q174.10-14.08 176.60-13.44L176.60-13.44Q176.50-14.53 175.94-15.46Q175.37-16.39 174.37-17.06Q173.36-17.73 171.94-18.11Q170.53-18.48 168.73-18.48L168.73-18.48Q167.75-18.48 166.58-18.36Q165.41-18.24 164.16-18.01Q162.91-17.77 161.69-17.42Q160.47-17.07 159.41-16.58L159.41-16.58L157.66-21.33Q158.96-21.80 160.46-22.19Q161.95-22.58 163.52-22.86Q165.08-23.14 166.64-23.30Q168.20-23.46 169.67-23.46L169.67-23.46Q176.13-23.46 179.28-20.16Q182.42-16.86 182.42-10.04L182.42-10.04L182.42 0L176.64 0L176.64-2.17Q175.74-1.64 174.68-1.17Q173.61-0.70 172.36-0.35Q171.11 0 169.68 0.21Q168.24 0.41 166.64 0.41L166.64 0.41Q163.95 0.41 161.90-0.18Q159.86-0.76 158.50-1.80Q157.13-2.83 156.44-4.23Q155.74-5.63 155.74-7.27ZM161.84-7.46L161.84-7.46Q161.84-6.89 162.13-6.38Q162.42-5.86 163.07-5.46Q163.71-5.06 164.72-4.81Q165.72-4.57 167.15-4.57L167.15-4.57Q168.67-4.57 170.10-4.84Q171.52-5.12 172.75-5.57Q173.98-6.02 174.98-6.60Q175.98-7.19 176.64-7.81L176.64-7.81L176.64-8.83Q175.31-9.20 174.01-9.45Q172.71-9.71 171.53-9.85Q170.35-10 169.31-10.06Q168.26-10.12 167.48-10.12L167.48-10.12Q165.86-10.12 164.79-9.90Q163.71-9.69 163.05-9.33Q162.38-8.96 162.11-8.48Q161.84-7.99 161.84-7.46Z M192.06 0L192.06-23.05L197.84-23.05L197.84-21.09Q200.14-22.40 202.24-22.93Q204.34-23.46 206.36-23.46L206.36-23.46Q208.99-23.46 211.24-22.69Q213.48-21.91 215.13-20.39Q216.77-18.87 217.69-16.59Q218.62-14.32 218.62-11.33L218.62-11.33L218.62 0L212.86 0L212.86-10.39Q212.86-12.29 212.32-13.78Q211.79-15.27 210.78-16.30Q209.77-17.32 208.34-17.86Q206.90-18.40 205.13-18.40L205.13-18.40Q204.19-18.40 203.20-18.20Q202.21-18.01 201.27-17.65Q200.32-17.29 199.44-16.75Q198.56-16.21 197.84-15.53L197.84-15.53L197.84 0L192.06 0Z M229.18 8.79L231.32 3.91Q232.42 4.30 233.55 4.56Q234.68 4.82 235.75 4.99Q236.81 5.16 237.79 5.22Q238.77 5.29 239.53 5.29L239.53 5.29Q241.83 5.29 243.54 4.74Q245.25 4.18 246.39 3.24Q247.54 2.30 248.10 1.06Q248.67-0.18 248.67-1.56L248.67-1.56L248.67-2.56Q247.93-2.05 246.93-1.58Q245.93-1.11 244.74-0.76Q243.55-0.41 242.21-0.20Q240.88 0.02 239.45 0.02L239.45 0.02Q236.62 0.02 234.21-0.83Q231.81-1.68 230.05-3.21Q228.30-4.75 227.31-6.89Q226.32-9.04 226.32-11.66L226.32-11.66Q226.32-14.34 227.36-16.51Q228.39-18.69 230.22-20.23Q232.05-21.78 234.55-22.62Q237.05-23.46 239.98-23.46L239.98-23.46Q241.23-23.46 242.46-23.30Q243.69-23.14 244.81-22.87Q245.93-22.60 246.92-22.22Q247.91-21.84 248.67-21.39L248.67-21.39L248.67-23.05L254.45-23.05L254.45-2.64Q254.45 0.51 253.49 2.93Q252.54 5.35 250.69 7.00Q248.84 8.65 246.11 9.50Q243.38 10.35 239.84 10.35L239.84 10.35Q238.57 10.35 237.20 10.24Q235.84 10.14 234.46 9.93Q233.08 9.73 231.74 9.44Q230.41 9.16 229.18 8.79L229.18 8.79ZM232.40-11.72L232.40-11.72Q232.40-10.33 232.96-9.11Q233.51-7.89 234.55-6.98Q235.58-6.07 237.05-5.56Q238.51-5.04 240.35-5.04L240.35-5.04Q241.54-5.04 242.72-5.26Q243.90-5.49 244.99-5.90Q246.07-6.31 247.02-6.89Q247.96-7.48 248.67-8.20L248.67-8.20L248.67-15.80Q247.79-16.50 246.81-16.99Q245.84-17.48 244.82-17.79Q243.80-18.11 242.77-18.25Q241.73-18.40 240.76-18.40L240.76-18.40Q238.77-18.40 237.21-17.87Q235.66-17.34 234.60-16.44Q233.53-15.53 232.96-14.32Q232.40-13.11 232.40-11.72Z M263.03-11.00L263.03-23.07L268.79-23.07L268.79-11.82Q268.79-10.21 269.14-8.90Q269.50-7.58 270.35-6.64Q271.20-5.70 272.61-5.19Q274.03-4.67 276.14-4.67L276.14-4.67Q277.13-4.67 278.16-4.88Q279.18-5.10 280.12-5.48Q281.06-5.86 281.87-6.39Q282.68-6.91 283.27-7.54L283.27-7.54L283.27-23.07L289.05-23.07L289.05 0L283.27 0L283.27-1.97Q281.14-0.70 278.99-0.16Q276.84 0.39 274.91 0.39L274.91 0.39Q271.74 0.39 269.49-0.37Q267.23-1.13 265.79-2.59Q264.36-4.04 263.70-6.16Q263.03-8.28 263.03-11.00L263.03-11.00Z M297.30-7.27L297.30-7.27Q297.30-8.93 298.02-10.29Q298.74-11.66 300.19-12.65Q301.63-13.63 303.79-14.17Q305.95-14.71 308.82-14.71L308.82-14.71Q310.95-14.71 313.30-14.39Q315.66-14.08 318.16-13.44L318.16-13.44Q318.06-14.53 317.49-15.46Q316.93-16.39 315.92-17.06Q314.91-17.73 313.50-18.11Q312.08-18.48 310.29-18.48L310.29-18.48Q309.31-18.48 308.14-18.36Q306.96-18.24 305.71-18.01Q304.46-17.77 303.24-17.42Q302.02-17.07 300.97-16.58L300.97-16.58L299.21-21.33Q300.52-21.80 302.01-22.19Q303.51-22.58 305.07-22.86Q306.63-23.14 308.20-23.30Q309.76-23.46 311.22-23.46L311.22-23.46Q317.69-23.46 320.83-20.16Q323.98-16.86 323.98-10.04L323.98-10.04L323.98 0L318.20 0L318.20-2.17Q317.30-1.64 316.23-1.17Q315.17-0.70 313.92-0.35Q312.67 0 311.23 0.21Q309.80 0.41 308.20 0.41L308.20 0.41Q305.50 0.41 303.46-0.18Q301.42-0.76 300.05-1.80Q298.68-2.83 297.99-4.23Q297.30-5.63 297.30-7.27ZM303.39-7.46L303.39-7.46Q303.39-6.89 303.68-6.38Q303.98-5.86 304.62-5.46Q305.27-5.06 306.27-4.81Q307.28-4.57 308.70-4.57L308.70-4.57Q310.23-4.57 311.65-4.84Q313.08-5.12 314.31-5.57Q315.54-6.02 316.54-6.60Q317.53-7.19 318.20-7.81L318.20-7.81L318.20-8.83Q316.87-9.20 315.57-9.45Q314.27-9.71 313.09-9.85Q311.91-10 310.86-10.06Q309.82-10.12 309.04-10.12L309.04-10.12Q307.41-10.12 306.34-9.90Q305.27-9.69 304.60-9.33Q303.94-8.96 303.66-8.48Q303.39-7.99 303.39-7.46Z M335.08 8.79L337.23 3.91Q338.32 4.30 339.45 4.56Q340.59 4.82 341.65 4.99Q342.71 5.16 343.69 5.22Q344.67 5.29 345.43 5.29L345.43 5.29Q347.73 5.29 349.44 4.74Q351.15 4.18 352.29 3.24Q353.44 2.30 354.00 1.06Q354.57-0.18 354.57-1.56L354.57-1.56L354.57-2.56Q353.83-2.05 352.83-1.58Q351.84-1.11 350.64-0.76Q349.45-0.41 348.12-0.20Q346.78 0.02 345.35 0.02L345.35 0.02Q342.52 0.02 340.12-0.83Q337.71-1.68 335.96-3.21Q334.20-4.75 333.21-6.89Q332.23-9.04 332.23-11.66L332.23-11.66Q332.23-14.34 333.26-16.51Q334.30-18.69 336.12-20.23Q337.95-21.78 340.45-22.62Q342.95-23.46 345.88-23.46L345.88-23.46Q347.13-23.46 348.36-23.30Q349.59-23.14 350.71-22.87Q351.84-22.60 352.82-22.22Q353.81-21.84 354.57-21.39L354.57-21.39L354.57-23.05L360.35-23.05L360.35-2.64Q360.35 0.51 359.39 2.93Q358.44 5.35 356.59 7.00Q354.75 8.65 352.01 9.50Q349.28 10.35 345.74 10.35L345.74 10.35Q344.47 10.35 343.11 10.24Q341.74 10.14 340.36 9.93Q338.98 9.73 337.65 9.44Q336.31 9.16 335.08 8.79L335.08 8.79ZM338.30-11.72L338.30-11.72Q338.30-10.33 338.86-9.11Q339.41-7.89 340.45-6.98Q341.48-6.07 342.95-5.56Q344.41-5.04 346.25-5.04L346.25-5.04Q347.44-5.04 348.62-5.26Q349.80-5.49 350.89-5.90Q351.97-6.31 352.92-6.89Q353.87-7.48 354.57-8.20L354.57-8.20L354.57-15.80Q353.69-16.50 352.71-16.99Q351.74-17.48 350.72-17.79Q349.71-18.11 348.67-18.25Q347.64-18.40 346.66-18.40L346.66-18.40Q344.67-18.40 343.12-17.87Q341.56-17.34 340.50-16.44Q339.43-15.53 338.87-14.32Q338.30-13.11 338.30-11.72Z M367.84-11.60L367.84-11.60Q367.84-13.95 368.80-16.08Q369.75-18.22 371.55-19.86Q373.35-21.50 375.96-22.48Q378.56-23.46 381.88-23.46L381.88-23.46Q385.18-23.46 387.83-22.47Q390.48-21.48 392.32-19.77Q394.17-18.05 395.15-15.72Q396.14-13.40 396.14-10.74L396.14-10.74Q396.14-10.41 396.13-10.03Q396.12-9.65 396.08-9.34L396.08-9.34L374.29-9.34Q374.66-8.30 375.49-7.44Q376.32-6.58 377.57-5.96Q378.82-5.33 380.46-4.99Q382.10-4.65 384.09-4.65L384.09-4.65Q386.08-4.65 388.05-5.07Q390.03-5.49 391.82-6.13L391.82-6.13L393.78-1.72Q392.64-1.19 391.48-0.79Q390.32-0.39 389.06-0.13Q387.80 0.14 386.42 0.27Q385.05 0.41 383.52 0.41L383.52 0.41Q379.64 0.41 376.71-0.53Q373.78-1.46 371.80-3.09Q369.83-4.71 368.84-6.89Q367.84-9.08 367.84-11.60ZM374.29-13.85L390.01-13.85Q389.70-14.80 389.04-15.63Q388.39-16.46 387.41-17.08Q386.43-17.70 385.14-18.05Q383.86-18.40 382.31-18.40L382.31-18.40Q380.67-18.40 379.32-18.03Q377.98-17.66 376.96-17.03Q375.95-16.41 375.27-15.59Q374.60-14.77 374.29-13.85L374.29-13.85Z">
          </path>
        </g>
      </svg>
    </g>
  </g>

  <g filter="url(#cc85ba1d-645c-48a6-a99a-c407fcf33b94ikYEXSHZT)">
    <g opacity="1" transform="rotate(0 257.4234 331.7996)">
      <svg width="309.1531" height="33.7366" x="257.4234" y="331.7996" version="1.1" preserveAspectRatio="none" viewBox="4.3555 -32.4023 391.7851 42.753899999999994">
        <g transform="matrix(1 0 0 1 0 0)" style="fill: #2317FF;">
          <path id="id-cc85ba1d-645c-48a6-a99a-c407fcf33b94BEGfasMba12" d="M4.36 0L4.36-30.53L10.55-30.53L21.64-19.39L32.73-30.53L38.93-30.53L38.93 0L32.73 0L32.73-21.95L21.64-11.27L10.55-21.95L10.55 0L4.36 0Z M47.80-11.60L47.80-11.60Q47.80-13.95 48.76-16.08Q49.71-18.22 51.51-19.86Q53.31-21.50 55.92-22.48Q58.52-23.46 61.84-23.46L61.84-23.46Q65.14-23.46 67.79-22.47Q70.44-21.48 72.28-19.77Q74.13-18.05 75.12-15.72Q76.10-13.40 76.10-10.74L76.10-10.74Q76.10-10.41 76.09-10.03Q76.08-9.65 76.04-9.34L76.04-9.34L54.25-9.34Q54.62-8.30 55.45-7.44Q56.28-6.58 57.53-5.96Q58.78-5.33 60.42-4.99Q62.06-4.65 64.05-4.65L64.05-4.65Q66.04-4.65 68.02-5.07Q69.99-5.49 71.79-6.13L71.79-6.13L73.74-1.72Q72.61-1.19 71.44-0.79Q70.28-0.39 69.02-0.13Q67.76 0.14 66.38 0.27Q65.01 0.41 63.48 0.41L63.48 0.41Q59.60 0.41 56.67-0.53Q53.74-1.46 51.77-3.09Q49.79-4.71 48.80-6.89Q47.80-9.08 47.80-11.60ZM54.25-13.85L69.97-13.85Q69.66-14.80 69.00-15.63Q68.35-16.46 67.37-17.08Q66.39-17.70 65.11-18.05Q63.82-18.40 62.27-18.40L62.27-18.40Q60.63-18.40 59.29-18.03Q57.94-17.66 56.92-17.03Q55.91-16.41 55.23-15.59Q54.56-14.77 54.25-13.85L54.25-13.85Z M87.79 0L87.79-18.71L82.22-18.71L82.22-23.05L87.79-23.05L87.79-30.21L93.57-30.21L93.57-23.05L99.14-23.05L99.14-18.71L93.57-18.71L93.57 0L87.79 0Z M105.18-7.27L105.18-7.27Q105.18-8.93 105.90-10.29Q106.63-11.66 108.07-12.65Q109.52-13.63 111.67-14.17Q113.83-14.71 116.70-14.71L116.70-14.71Q118.83-14.71 121.19-14.39Q123.54-14.08 126.04-13.44L126.04-13.44Q125.94-14.53 125.38-15.46Q124.81-16.39 123.80-17.06Q122.80-17.73 121.38-18.11Q119.96-18.48 118.17-18.48L118.17-18.48Q117.19-18.48 116.02-18.36Q114.85-18.24 113.60-18.01Q112.35-17.77 111.13-17.42Q109.91-17.07 108.85-16.58L108.85-16.58L107.09-21.33Q108.40-21.80 109.90-22.19Q111.39-22.58 112.95-22.86Q114.52-23.14 116.08-23.30Q117.64-23.46 119.11-23.46L119.11-23.46Q125.57-23.46 128.71-20.16Q131.86-16.86 131.86-10.04L131.86-10.04L131.86 0L126.08 0L126.08-2.17Q125.18-1.64 124.12-1.17Q123.05-0.70 121.80-0.35Q120.55 0 119.12 0.21Q117.68 0.41 116.08 0.41L116.08 0.41Q113.38 0.41 111.34-0.18Q109.30-0.76 107.93-1.80Q106.57-2.83 105.87-4.23Q105.18-5.63 105.18-7.27ZM111.27-7.46L111.27-7.46Q111.27-6.89 111.57-6.38Q111.86-5.86 112.50-5.46Q113.15-5.06 114.15-4.81Q115.16-4.57 116.59-4.57L116.59-4.57Q118.11-4.57 119.54-4.84Q120.96-5.12 122.19-5.57Q123.42-6.02 124.42-6.60Q125.41-7.19 126.08-7.81L126.08-7.81L126.08-8.83Q124.75-9.20 123.45-9.45Q122.15-9.71 120.97-9.85Q119.79-10 118.74-10.06Q117.70-10.12 116.92-10.12L116.92-10.12Q115.30-10.12 114.22-9.90Q113.15-9.69 112.48-9.33Q111.82-8.96 111.55-8.48Q111.27-7.99 111.27-7.46Z M141.65 0L141.65-32.40L147.43-32.40L147.43 0L141.65 0Z M155.74-7.27L155.74-7.27Q155.74-8.93 156.46-10.29Q157.19-11.66 158.63-12.65Q160.08-13.63 162.24-14.17Q164.39-14.71 167.27-14.71L167.27-14.71Q169.39-14.71 171.75-14.39Q174.10-14.08 176.60-13.44L176.60-13.44Q176.50-14.53 175.94-15.46Q175.37-16.39 174.37-17.06Q173.36-17.73 171.94-18.11Q170.53-18.48 168.73-18.48L168.73-18.48Q167.75-18.48 166.58-18.36Q165.41-18.24 164.16-18.01Q162.91-17.77 161.69-17.42Q160.47-17.07 159.41-16.58L159.41-16.58L157.66-21.33Q158.96-21.80 160.46-22.19Q161.95-22.58 163.52-22.86Q165.08-23.14 166.64-23.30Q168.20-23.46 169.67-23.46L169.67-23.46Q176.13-23.46 179.28-20.16Q182.42-16.86 182.42-10.04L182.42-10.04L182.42 0L176.64 0L176.64-2.17Q175.74-1.64 174.68-1.17Q173.61-0.70 172.36-0.35Q171.11 0 169.68 0.21Q168.24 0.41 166.64 0.41L166.64 0.41Q163.95 0.41 161.90-0.18Q159.86-0.76 158.50-1.80Q157.13-2.83 156.44-4.23Q155.74-5.63 155.74-7.27ZM161.84-7.46L161.84-7.46Q161.84-6.89 162.13-6.38Q162.42-5.86 163.07-5.46Q163.71-5.06 164.72-4.81Q165.72-4.57 167.15-4.57L167.15-4.57Q168.67-4.57 170.10-4.84Q171.52-5.12 172.75-5.57Q173.98-6.02 174.98-6.60Q175.98-7.19 176.64-7.81L176.64-7.81L176.64-8.83Q175.31-9.20 174.01-9.45Q172.71-9.71 171.53-9.85Q170.35-10 169.31-10.06Q168.26-10.12 167.48-10.12L167.48-10.12Q165.86-10.12 164.79-9.90Q163.71-9.69 163.05-9.33Q162.38-8.96 162.11-8.48Q161.84-7.99 161.84-7.46Z M192.06 0L192.06-23.05L197.84-23.05L197.84-21.09Q200.14-22.40 202.24-22.93Q204.34-23.46 206.36-23.46L206.36-23.46Q208.99-23.46 211.24-22.69Q213.48-21.91 215.13-20.39Q216.77-18.87 217.69-16.59Q218.62-14.32 218.62-11.33L218.62-11.33L218.62 0L212.86 0L212.86-10.39Q212.86-12.29 212.32-13.78Q211.79-15.27 210.78-16.30Q209.77-17.32 208.34-17.86Q206.90-18.40 205.13-18.40L205.13-18.40Q204.19-18.40 203.20-18.20Q202.21-18.01 201.27-17.65Q200.32-17.29 199.44-16.75Q198.56-16.21 197.84-15.53L197.84-15.53L197.84 0L192.06 0Z M229.18 8.79L231.32 3.91Q232.42 4.30 233.55 4.56Q234.68 4.82 235.75 4.99Q236.81 5.16 237.79 5.22Q238.77 5.29 239.53 5.29L239.53 5.29Q241.83 5.29 243.54 4.74Q245.25 4.18 246.39 3.24Q247.54 2.30 248.10 1.06Q248.67-0.18 248.67-1.56L248.67-1.56L248.67-2.56Q247.93-2.05 246.93-1.58Q245.93-1.11 244.74-0.76Q243.55-0.41 242.21-0.20Q240.88 0.02 239.45 0.02L239.45 0.02Q236.62 0.02 234.21-0.83Q231.81-1.68 230.05-3.21Q228.30-4.75 227.31-6.89Q226.32-9.04 226.32-11.66L226.32-11.66Q226.32-14.34 227.36-16.51Q228.39-18.69 230.22-20.23Q232.05-21.78 234.55-22.62Q237.05-23.46 239.98-23.46L239.98-23.46Q241.23-23.46 242.46-23.30Q243.69-23.14 244.81-22.87Q245.93-22.60 246.92-22.22Q247.91-21.84 248.67-21.39L248.67-21.39L248.67-23.05L254.45-23.05L254.45-2.64Q254.45 0.51 253.49 2.93Q252.54 5.35 250.69 7.00Q248.84 8.65 246.11 9.50Q243.38 10.35 239.84 10.35L239.84 10.35Q238.57 10.35 237.20 10.24Q235.84 10.14 234.46 9.93Q233.08 9.73 231.74 9.44Q230.41 9.16 229.18 8.79L229.18 8.79ZM232.40-11.72L232.40-11.72Q232.40-10.33 232.96-9.11Q233.51-7.89 234.55-6.98Q235.58-6.07 237.05-5.56Q238.51-5.04 240.35-5.04L240.35-5.04Q241.54-5.04 242.72-5.26Q243.90-5.49 244.99-5.90Q246.07-6.31 247.02-6.89Q247.96-7.48 248.67-8.20L248.67-8.20L248.67-15.80Q247.79-16.50 246.81-16.99Q245.84-17.48 244.82-17.79Q243.80-18.11 242.77-18.25Q241.73-18.40 240.76-18.40L240.76-18.40Q238.77-18.40 237.21-17.87Q235.66-17.34 234.60-16.44Q233.53-15.53 232.96-14.32Q232.40-13.11 232.40-11.72Z M263.03-11.00L263.03-23.07L268.79-23.07L268.79-11.82Q268.79-10.21 269.14-8.90Q269.50-7.58 270.35-6.64Q271.20-5.70 272.61-5.19Q274.03-4.67 276.14-4.67L276.14-4.67Q277.13-4.67 278.16-4.88Q279.18-5.10 280.12-5.48Q281.06-5.86 281.87-6.39Q282.68-6.91 283.27-7.54L283.27-7.54L283.27-23.07L289.05-23.07L289.05 0L283.27 0L283.27-1.97Q281.14-0.70 278.99-0.16Q276.84 0.39 274.91 0.39L274.91 0.39Q271.74 0.39 269.49-0.37Q267.23-1.13 265.79-2.59Q264.36-4.04 263.70-6.16Q263.03-8.28 263.03-11.00L263.03-11.00Z M297.30-7.27L297.30-7.27Q297.30-8.93 298.02-10.29Q298.74-11.66 300.19-12.65Q301.63-13.63 303.79-14.17Q305.95-14.71 308.82-14.71L308.82-14.71Q310.95-14.71 313.30-14.39Q315.66-14.08 318.16-13.44L318.16-13.44Q318.06-14.53 317.49-15.46Q316.93-16.39 315.92-17.06Q314.91-17.73 313.50-18.11Q312.08-18.48 310.29-18.48L310.29-18.48Q309.31-18.48 308.14-18.36Q306.96-18.24 305.71-18.01Q304.46-17.77 303.24-17.42Q302.02-17.07 300.97-16.58L300.97-16.58L299.21-21.33Q300.52-21.80 302.01-22.19Q303.51-22.58 305.07-22.86Q306.63-23.14 308.20-23.30Q309.76-23.46 311.22-23.46L311.22-23.46Q317.69-23.46 320.83-20.16Q323.98-16.86 323.98-10.04L323.98-10.04L323.98 0L318.20 0L318.20-2.17Q317.30-1.64 316.23-1.17Q315.17-0.70 313.92-0.35Q312.67 0 311.23 0.21Q309.80 0.41 308.20 0.41L308.20 0.41Q305.50 0.41 303.46-0.18Q301.42-0.76 300.05-1.80Q298.68-2.83 297.99-4.23Q297.30-5.63 297.30-7.27ZM303.39-7.46L303.39-7.46Q303.39-6.89 303.68-6.38Q303.98-5.86 304.62-5.46Q305.27-5.06 306.27-4.81Q307.28-4.57 308.70-4.57L308.70-4.57Q310.23-4.57 311.65-4.84Q313.08-5.12 314.31-5.57Q315.54-6.02 316.54-6.60Q317.53-7.19 318.20-7.81L318.20-7.81L318.20-8.83Q316.87-9.20 315.57-9.45Q314.27-9.71 313.09-9.85Q311.91-10 310.86-10.06Q309.82-10.12 309.04-10.12L309.04-10.12Q307.41-10.12 306.34-9.90Q305.27-9.69 304.60-9.33Q303.94-8.96 303.66-8.48Q303.39-7.99 303.39-7.46Z M335.08 8.79L337.23 3.91Q338.32 4.30 339.45 4.56Q340.59 4.82 341.65 4.99Q342.71 5.16 343.69 5.22Q344.67 5.29 345.43 5.29L345.43 5.29Q347.73 5.29 349.44 4.74Q351.15 4.18 352.29 3.24Q353.44 2.30 354.00 1.06Q354.57-0.18 354.57-1.56L354.57-1.56L354.57-2.56Q353.83-2.05 352.83-1.58Q351.84-1.11 350.64-0.76Q349.45-0.41 348.12-0.20Q346.78 0.02 345.35 0.02L345.35 0.02Q342.52 0.02 340.12-0.83Q337.71-1.68 335.96-3.21Q334.20-4.75 333.21-6.89Q332.23-9.04 332.23-11.66L332.23-11.66Q332.23-14.34 333.26-16.51Q334.30-18.69 336.12-20.23Q337.95-21.78 340.45-22.62Q342.95-23.46 345.88-23.46L345.88-23.46Q347.13-23.46 348.36-23.30Q349.59-23.14 350.71-22.87Q351.84-22.60 352.82-22.22Q353.81-21.84 354.57-21.39L354.57-21.39L354.57-23.05L360.35-23.05L360.35-2.64Q360.35 0.51 359.39 2.93Q358.44 5.35 356.59 7.00Q354.75 8.65 352.01 9.50Q349.28 10.35 345.74 10.35L345.74 10.35Q344.47 10.35 343.11 10.24Q341.74 10.14 340.36 9.93Q338.98 9.73 337.65 9.44Q336.31 9.16 335.08 8.79L335.08 8.79ZM338.30-11.72L338.30-11.72Q338.30-10.33 338.86-9.11Q339.41-7.89 340.45-6.98Q341.48-6.07 342.95-5.56Q344.41-5.04 346.25-5.04L346.25-5.04Q347.44-5.04 348.62-5.26Q349.80-5.49 350.89-5.90Q351.97-6.31 352.92-6.89Q353.87-7.48 354.57-8.20L354.57-8.20L354.57-15.80Q353.69-16.50 352.71-16.99Q351.74-17.48 350.72-17.79Q349.71-18.11 348.67-18.25Q347.64-18.40 346.66-18.40L346.66-18.40Q344.67-18.40 343.12-17.87Q341.56-17.34 340.50-16.44Q339.43-15.53 338.87-14.32Q338.30-13.11 338.30-11.72Z M367.84-11.60L367.84-11.60Q367.84-13.95 368.80-16.08Q369.75-18.22 371.55-19.86Q373.35-21.50 375.96-22.48Q378.56-23.46 381.88-23.46L381.88-23.46Q385.18-23.46 387.83-22.47Q390.48-21.48 392.32-19.77Q394.17-18.05 395.15-15.72Q396.14-13.40 396.14-10.74L396.14-10.74Q396.14-10.41 396.13-10.03Q396.12-9.65 396.08-9.34L396.08-9.34L374.29-9.34Q374.66-8.30 375.49-7.44Q376.32-6.58 377.57-5.96Q378.82-5.33 380.46-4.99Q382.10-4.65 384.09-4.65L384.09-4.65Q386.08-4.65 388.05-5.07Q390.03-5.49 391.82-6.13L391.82-6.13L393.78-1.72Q392.64-1.19 391.48-0.79Q390.32-0.39 389.06-0.13Q387.80 0.14 386.42 0.27Q385.05 0.41 383.52 0.41L383.52 0.41Q379.64 0.41 376.71-0.53Q373.78-1.46 371.80-3.09Q369.83-4.71 368.84-6.89Q367.84-9.08 367.84-11.60ZM374.29-13.85L390.01-13.85Q389.70-14.80 389.04-15.63Q388.39-16.46 387.41-17.08Q386.43-17.70 385.14-18.05Q383.86-18.40 382.31-18.40L382.31-18.40Q380.67-18.40 379.32-18.03Q377.98-17.66 376.96-17.03Q375.95-16.41 375.27-15.59Q374.60-14.77 374.29-13.85L374.29-13.85Z">
          </path>
        </g>
      </svg>
    </g>
  </g>

  <g filter="url(#cc85ba1d-645c-48a6-a99a-c407fcf33b94tUk6sjh6M)">
    <g opacity="1" transform="rotate(0 257.4235 328.4259)">
      <svg width="309.153" height="33.7367" x="257.4235" y="328.4259" version="1.1" preserveAspectRatio="none" viewBox="4.3555 -32.4023 391.7851 42.753899999999994">
        <g transform="matrix(1 0 0 1 0 0)" style="fill: #FFFFFF;">
          <path id="id-cc85ba1d-645c-48a6-a99a-c407fcf33b94D6z1nYkh12" d="M4.36 0L4.36-30.53L10.55-30.53L21.64-19.39L32.73-30.53L38.93-30.53L38.93 0L32.73 0L32.73-21.95L21.64-11.27L10.55-21.95L10.55 0L4.36 0Z M47.80-11.60L47.80-11.60Q47.80-13.95 48.76-16.08Q49.71-18.22 51.51-19.86Q53.31-21.50 55.92-22.48Q58.52-23.46 61.84-23.46L61.84-23.46Q65.14-23.46 67.79-22.47Q70.44-21.48 72.28-19.77Q74.13-18.05 75.12-15.72Q76.10-13.40 76.10-10.74L76.10-10.74Q76.10-10.41 76.09-10.03Q76.08-9.65 76.04-9.34L76.04-9.34L54.25-9.34Q54.62-8.30 55.45-7.44Q56.28-6.58 57.53-5.96Q58.78-5.33 60.42-4.99Q62.06-4.65 64.05-4.65L64.05-4.65Q66.04-4.65 68.02-5.07Q69.99-5.49 71.79-6.13L71.79-6.13L73.74-1.72Q72.61-1.19 71.44-0.79Q70.28-0.39 69.02-0.13Q67.76 0.14 66.38 0.27Q65.01 0.41 63.48 0.41L63.48 0.41Q59.60 0.41 56.67-0.53Q53.74-1.46 51.77-3.09Q49.79-4.71 48.80-6.89Q47.80-9.08 47.80-11.60ZM54.25-13.85L69.97-13.85Q69.66-14.80 69.00-15.63Q68.35-16.46 67.37-17.08Q66.39-17.70 65.11-18.05Q63.82-18.40 62.27-18.40L62.27-18.40Q60.63-18.40 59.29-18.03Q57.94-17.66 56.92-17.03Q55.91-16.41 55.23-15.59Q54.56-14.77 54.25-13.85L54.25-13.85Z M87.79 0L87.79-18.71L82.22-18.71L82.22-23.05L87.79-23.05L87.79-30.21L93.57-30.21L93.57-23.05L99.14-23.05L99.14-18.71L93.57-18.71L93.57 0L87.79 0Z M105.18-7.27L105.18-7.27Q105.18-8.93 105.90-10.29Q106.63-11.66 108.07-12.65Q109.52-13.63 111.67-14.17Q113.83-14.71 116.70-14.71L116.70-14.71Q118.83-14.71 121.19-14.39Q123.54-14.08 126.04-13.44L126.04-13.44Q125.94-14.53 125.38-15.46Q124.81-16.39 123.80-17.06Q122.80-17.73 121.38-18.11Q119.96-18.48 118.17-18.48L118.17-18.48Q117.19-18.48 116.02-18.36Q114.85-18.24 113.60-18.01Q112.35-17.77 111.13-17.42Q109.91-17.07 108.85-16.58L108.85-16.58L107.09-21.33Q108.40-21.80 109.90-22.19Q111.39-22.58 112.95-22.86Q114.52-23.14 116.08-23.30Q117.64-23.46 119.11-23.46L119.11-23.46Q125.57-23.46 128.71-20.16Q131.86-16.86 131.86-10.04L131.86-10.04L131.86 0L126.08 0L126.08-2.17Q125.18-1.64 124.12-1.17Q123.05-0.70 121.80-0.35Q120.55 0 119.12 0.21Q117.68 0.41 116.08 0.41L116.08 0.41Q113.38 0.41 111.34-0.18Q109.30-0.76 107.93-1.80Q106.57-2.83 105.87-4.23Q105.18-5.63 105.18-7.27ZM111.27-7.46L111.27-7.46Q111.27-6.89 111.57-6.38Q111.86-5.86 112.50-5.46Q113.15-5.06 114.15-4.81Q115.16-4.57 116.59-4.57L116.59-4.57Q118.11-4.57 119.54-4.84Q120.96-5.12 122.19-5.57Q123.42-6.02 124.42-6.60Q125.41-7.19 126.08-7.81L126.08-7.81L126.08-8.83Q124.75-9.20 123.45-9.45Q122.15-9.71 120.97-9.85Q119.79-10 118.74-10.06Q117.70-10.12 116.92-10.12L116.92-10.12Q115.30-10.12 114.22-9.90Q113.15-9.69 112.48-9.33Q111.82-8.96 111.55-8.48Q111.27-7.99 111.27-7.46Z M141.65 0L141.65-32.40L147.43-32.40L147.43 0L141.65 0Z M155.74-7.27L155.74-7.27Q155.74-8.93 156.46-10.29Q157.19-11.66 158.63-12.65Q160.08-13.63 162.24-14.17Q164.39-14.71 167.27-14.71L167.27-14.71Q169.39-14.71 171.75-14.39Q174.10-14.08 176.60-13.44L176.60-13.44Q176.50-14.53 175.94-15.46Q175.37-16.39 174.37-17.06Q173.36-17.73 171.94-18.11Q170.53-18.48 168.73-18.48L168.73-18.48Q167.75-18.48 166.58-18.36Q165.41-18.24 164.16-18.01Q162.91-17.77 161.69-17.42Q160.47-17.07 159.41-16.58L159.41-16.58L157.66-21.33Q158.96-21.80 160.46-22.19Q161.95-22.58 163.52-22.86Q165.08-23.14 166.64-23.30Q168.20-23.46 169.67-23.46L169.67-23.46Q176.13-23.46 179.28-20.16Q182.42-16.86 182.42-10.04L182.42-10.04L182.42 0L176.64 0L176.64-2.17Q175.74-1.64 174.68-1.17Q173.61-0.70 172.36-0.35Q171.11 0 169.68 0.21Q168.24 0.41 166.64 0.41L166.64 0.41Q163.95 0.41 161.90-0.18Q159.86-0.76 158.50-1.80Q157.13-2.83 156.44-4.23Q155.74-5.63 155.74-7.27ZM161.84-7.46L161.84-7.46Q161.84-6.89 162.13-6.38Q162.42-5.86 163.07-5.46Q163.71-5.06 164.72-4.81Q165.72-4.57 167.15-4.57L167.15-4.57Q168.67-4.57 170.10-4.84Q171.52-5.12 172.75-5.57Q173.98-6.02 174.98-6.60Q175.98-7.19 176.64-7.81L176.64-7.81L176.64-8.83Q175.31-9.20 174.01-9.45Q172.71-9.71 171.53-9.85Q170.35-10 169.31-10.06Q168.26-10.12 167.48-10.12L167.48-10.12Q165.86-10.12 164.79-9.90Q163.71-9.69 163.05-9.33Q162.38-8.96 162.11-8.48Q161.84-7.99 161.84-7.46Z M192.06 0L192.06-23.05L197.84-23.05L197.84-21.09Q200.14-22.40 202.24-22.93Q204.34-23.46 206.36-23.46L206.36-23.46Q208.99-23.46 211.24-22.69Q213.48-21.91 215.13-20.39Q216.77-18.87 217.69-16.59Q218.62-14.32 218.62-11.33L218.62-11.33L218.62 0L212.86 0L212.86-10.39Q212.86-12.29 212.32-13.78Q211.79-15.27 210.78-16.30Q209.77-17.32 208.34-17.86Q206.90-18.40 205.13-18.40L205.13-18.40Q204.19-18.40 203.20-18.20Q202.21-18.01 201.27-17.65Q200.32-17.29 199.44-16.75Q198.56-16.21 197.84-15.53L197.84-15.53L197.84 0L192.06 0Z M229.18 8.79L231.32 3.91Q232.42 4.30 233.55 4.56Q234.68 4.82 235.75 4.99Q236.81 5.16 237.79 5.22Q238.77 5.29 239.53 5.29L239.53 5.29Q241.83 5.29 243.54 4.74Q245.25 4.18 246.39 3.24Q247.54 2.30 248.10 1.06Q248.67-0.18 248.67-1.56L248.67-1.56L248.67-2.56Q247.93-2.05 246.93-1.58Q245.93-1.11 244.74-0.76Q243.55-0.41 242.21-0.20Q240.88 0.02 239.45 0.02L239.45 0.02Q236.62 0.02 234.21-0.83Q231.81-1.68 230.05-3.21Q228.30-4.75 227.31-6.89Q226.32-9.04 226.32-11.66L226.32-11.66Q226.32-14.34 227.36-16.51Q228.39-18.69 230.22-20.23Q232.05-21.78 234.55-22.62Q237.05-23.46 239.98-23.46L239.98-23.46Q241.23-23.46 242.46-23.30Q243.69-23.14 244.81-22.87Q245.93-22.60 246.92-22.22Q247.91-21.84 248.67-21.39L248.67-21.39L248.67-23.05L254.45-23.05L254.45-2.64Q254.45 0.51 253.49 2.93Q252.54 5.35 250.69 7.00Q248.84 8.65 246.11 9.50Q243.38 10.35 239.84 10.35L239.84 10.35Q238.57 10.35 237.20 10.24Q235.84 10.14 234.46 9.93Q233.08 9.73 231.74 9.44Q230.41 9.16 229.18 8.79L229.18 8.79ZM232.40-11.72L232.40-11.72Q232.40-10.33 232.96-9.11Q233.51-7.89 234.55-6.98Q235.58-6.07 237.05-5.56Q238.51-5.04 240.35-5.04L240.35-5.04Q241.54-5.04 242.72-5.26Q243.90-5.49 244.99-5.90Q246.07-6.31 247.02-6.89Q247.96-7.48 248.67-8.20L248.67-8.20L248.67-15.80Q247.79-16.50 246.81-16.99Q245.84-17.48 244.82-17.79Q243.80-18.11 242.77-18.25Q241.73-18.40 240.76-18.40L240.76-18.40Q238.77-18.40 237.21-17.87Q235.66-17.34 234.60-16.44Q233.53-15.53 232.96-14.32Q232.40-13.11 232.40-11.72Z M263.03-11.00L263.03-23.07L268.79-23.07L268.79-11.82Q268.79-10.21 269.14-8.90Q269.50-7.58 270.35-6.64Q271.20-5.70 272.61-5.19Q274.03-4.67 276.14-4.67L276.14-4.67Q277.13-4.67 278.16-4.88Q279.18-5.10 280.12-5.48Q281.06-5.86 281.87-6.39Q282.68-6.91 283.27-7.54L283.27-7.54L283.27-23.07L289.05-23.07L289.05 0L283.27 0L283.27-1.97Q281.14-0.70 278.99-0.16Q276.84 0.39 274.91 0.39L274.91 0.39Q271.74 0.39 269.49-0.37Q267.23-1.13 265.79-2.59Q264.36-4.04 263.70-6.16Q263.03-8.28 263.03-11.00L263.03-11.00Z M297.30-7.27L297.30-7.27Q297.30-8.93 298.02-10.29Q298.74-11.66 300.19-12.65Q301.63-13.63 303.79-14.17Q305.95-14.71 308.82-14.71L308.82-14.71Q310.95-14.71 313.30-14.39Q315.66-14.08 318.16-13.44L318.16-13.44Q318.06-14.53 317.49-15.46Q316.93-16.39 315.92-17.06Q314.91-17.73 313.50-18.11Q312.08-18.48 310.29-18.48L310.29-18.48Q309.31-18.48 308.14-18.36Q306.96-18.24 305.71-18.01Q304.46-17.77 303.24-17.42Q302.02-17.07 300.97-16.58L300.97-16.58L299.21-21.33Q300.52-21.80 302.01-22.19Q303.51-22.58 305.07-22.86Q306.63-23.14 308.20-23.30Q309.76-23.46 311.22-23.46L311.22-23.46Q317.69-23.46 320.83-20.16Q323.98-16.86 323.98-10.04L323.98-10.04L323.98 0L318.20 0L318.20-2.17Q317.30-1.64 316.23-1.17Q315.17-0.70 313.92-0.35Q312.67 0 311.23 0.21Q309.80 0.41 308.20 0.41L308.20 0.41Q305.50 0.41 303.46-0.18Q301.42-0.76 300.05-1.80Q298.68-2.83 297.99-4.23Q297.30-5.63 297.30-7.27ZM303.39-7.46L303.39-7.46Q303.39-6.89 303.68-6.38Q303.98-5.86 304.62-5.46Q305.27-5.06 306.27-4.81Q307.28-4.57 308.70-4.57L308.70-4.57Q310.23-4.57 311.65-4.84Q313.08-5.12 314.31-5.57Q315.54-6.02 316.54-6.60Q317.53-7.19 318.20-7.81L318.20-7.81L318.20-8.83Q316.87-9.20 315.57-9.45Q314.27-9.71 313.09-9.85Q311.91-10 310.86-10.06Q309.82-10.12 309.04-10.12L309.04-10.12Q307.41-10.12 306.34-9.90Q305.27-9.69 304.60-9.33Q303.94-8.96 303.66-8.48Q303.39-7.99 303.39-7.46Z M335.08 8.79L337.23 3.91Q338.32 4.30 339.45 4.56Q340.59 4.82 341.65 4.99Q342.71 5.16 343.69 5.22Q344.67 5.29 345.43 5.29L345.43 5.29Q347.73 5.29 349.44 4.74Q351.15 4.18 352.29 3.24Q353.44 2.30 354.00 1.06Q354.57-0.18 354.57-1.56L354.57-1.56L354.57-2.56Q353.83-2.05 352.83-1.58Q351.84-1.11 350.64-0.76Q349.45-0.41 348.12-0.20Q346.78 0.02 345.35 0.02L345.35 0.02Q342.52 0.02 340.12-0.83Q337.71-1.68 335.96-3.21Q334.20-4.75 333.21-6.89Q332.23-9.04 332.23-11.66L332.23-11.66Q332.23-14.34 333.26-16.51Q334.30-18.69 336.12-20.23Q337.95-21.78 340.45-22.62Q342.95-23.46 345.88-23.46L345.88-23.46Q347.13-23.46 348.36-23.30Q349.59-23.14 350.71-22.87Q351.84-22.60 352.82-22.22Q353.81-21.84 354.57-21.39L354.57-21.39L354.57-23.05L360.35-23.05L360.35-2.64Q360.35 0.51 359.39 2.93Q358.44 5.35 356.59 7.00Q354.75 8.65 352.01 9.50Q349.28 10.35 345.74 10.35L345.74 10.35Q344.47 10.35 343.11 10.24Q341.74 10.14 340.36 9.93Q338.98 9.73 337.65 9.44Q336.31 9.16 335.08 8.79L335.08 8.79ZM338.30-11.72L338.30-11.72Q338.30-10.33 338.86-9.11Q339.41-7.89 340.45-6.98Q341.48-6.07 342.95-5.56Q344.41-5.04 346.25-5.04L346.25-5.04Q347.44-5.04 348.62-5.26Q349.80-5.49 350.89-5.90Q351.97-6.31 352.92-6.89Q353.87-7.48 354.57-8.20L354.57-8.20L354.57-15.80Q353.69-16.50 352.71-16.99Q351.74-17.48 350.72-17.79Q349.71-18.11 348.67-18.25Q347.64-18.40 346.66-18.40L346.66-18.40Q344.67-18.40 343.12-17.87Q341.56-17.34 340.50-16.44Q339.43-15.53 338.87-14.32Q338.30-13.11 338.30-11.72Z M367.84-11.60L367.84-11.60Q367.84-13.95 368.80-16.08Q369.75-18.22 371.55-19.86Q373.35-21.50 375.96-22.48Q378.56-23.46 381.88-23.46L381.88-23.46Q385.18-23.46 387.83-22.47Q390.48-21.48 392.32-19.77Q394.17-18.05 395.15-15.72Q396.14-13.40 396.14-10.74L396.14-10.74Q396.14-10.41 396.13-10.03Q396.12-9.65 396.08-9.34L396.08-9.34L374.29-9.34Q374.66-8.30 375.49-7.44Q376.32-6.58 377.57-5.96Q378.82-5.33 380.46-4.99Q382.10-4.65 384.09-4.65L384.09-4.65Q386.08-4.65 388.05-5.07Q390.03-5.49 391.82-6.13L391.82-6.13L393.78-1.72Q392.64-1.19 391.48-0.79Q390.32-0.39 389.06-0.13Q387.80 0.14 386.42 0.27Q385.05 0.41 383.52 0.41L383.52 0.41Q379.64 0.41 376.71-0.53Q373.78-1.46 371.80-3.09Q369.83-4.71 368.84-6.89Q367.84-9.08 367.84-11.60ZM374.29-13.85L390.01-13.85Q389.70-14.80 389.04-15.63Q388.39-16.46 387.41-17.08Q386.43-17.70 385.14-18.05Q383.86-18.40 382.31-18.40L382.31-18.40Q380.67-18.40 379.32-18.03Q377.98-17.66 376.96-17.03Q375.95-16.41 375.27-15.59Q374.60-14.77 374.29-13.85L374.29-13.85Z"></path>
        </g>
      </svg>
    </g>
  </g>

</svg>