<svg width="151" height="30" viewBox="0 0 151 30" fill="none" xmlns="http://www.w3.org/2000/svg">
<path d="M44.1508 9.21816C45.1475 9.78696 45.9328 10.5827 46.5095 11.6029C47.0861 12.6231 47.3731 13.7789 47.3731 15.0653C47.3731 16.3516 47.0861 17.51 46.5095 18.538C45.9354 19.566 45.1475 20.3644 44.1508 20.9332C43.1541 21.502 42.0426 21.7864 40.8163 21.7864C39.59 21.7864 38.4811 21.502 37.4818 20.9332C36.4851 20.3644 35.6998 19.566 35.1231 18.538C34.5465 17.51 34.2595 16.3542 34.2595 15.0653C34.2595 13.7763 34.5465 12.6231 35.1231 11.6029C35.6972 10.5827 36.4851 9.78696 37.4818 9.21816C38.4785 8.64937 39.59 8.36497 40.8163 8.36497C42.0426 8.36497 43.1515 8.64937 44.1508 9.21816ZM38.7942 11.2977C38.2124 11.6447 37.7584 12.143 37.4296 12.7927C37.1009 13.4424 36.9365 14.2016 36.9365 15.0679C36.9365 15.9341 37.1009 16.6934 37.4296 17.343C37.7584 17.9927 38.2124 18.4911 38.7942 18.8381C39.376 19.1851 40.0518 19.3573 40.8189 19.3573C41.586 19.3573 42.2618 19.1851 42.8436 18.8381C43.4254 18.4911 43.8794 17.9927 44.2082 17.343C44.5369 16.6934 44.7013 15.9341 44.7013 15.0679C44.7013 14.2016 44.5369 13.4424 44.2082 12.7927C43.8794 12.143 43.4254 11.6447 42.8436 11.2977C42.2618 10.9506 41.586 10.7784 40.8189 10.7784C40.0518 10.7784 39.376 10.9506 38.7942 11.2977Z" fill="white"/>
<path d="M57.549 12.3909C58.2561 13.171 58.6083 14.2668 58.6083 15.6784V21.656H56.0096V15.9732C56.0096 15.1566 55.7983 14.5225 55.3782 14.0712C54.9581 13.6198 54.3815 13.3928 53.6509 13.3928C52.9204 13.3928 52.3151 13.6354 51.8689 14.1181C51.4227 14.6008 51.201 15.2949 51.201 16.1976V21.656H48.584V11.3681H51.201V13.4293C51.4723 12.7353 51.9211 12.1952 52.5473 11.8038C53.1709 11.415 53.8936 11.2194 54.7103 11.2194C55.9 11.2194 56.8445 11.6081 57.5516 12.3883L57.549 12.3909Z" fill="white"/>
<path d="M62.699 7.91626V21.656H60.082V7.91626H62.699Z" fill="white"/>
<path d="M65.9841 11.3707L68.7889 18.3527L71.3876 11.3707H74.2655L67.9722 26.5585H65.0761L67.3982 21.3585L63.0723 11.368H65.9867L65.9841 11.3707Z" fill="white"/>
<path d="M86.5571 19.9209C86.2232 20.4844 85.7274 20.9358 85.0725 21.2776C84.415 21.6194 83.6192 21.789 82.6773 21.789C81.7354 21.789 80.9188 21.6325 80.1882 21.3142C79.4576 20.9984 78.8732 20.5444 78.4349 19.9496C77.9939 19.3547 77.7434 18.6633 77.6834 17.8701H80.4674C80.53 18.4023 80.744 18.8459 81.1066 19.1981C81.4719 19.5504 81.9572 19.7278 82.5651 19.7278C83.1104 19.7278 83.5279 19.5817 83.8175 19.2921C84.1071 19.0025 84.2533 18.6267 84.2533 18.1675C84.2533 17.7579 84.1358 17.4213 83.901 17.1552C83.6662 16.889 83.3688 16.6751 83.0113 16.5159C82.6512 16.3542 82.1581 16.1689 81.5267 15.9576C80.71 15.6862 80.0421 15.4175 79.5203 15.1487C79.001 14.8826 78.5575 14.4965 78.1922 13.9877C77.8269 13.4815 77.6443 12.8188 77.6443 12.0021C77.6443 10.875 78.0487 9.98784 78.8601 9.33817C79.6716 8.68849 80.744 8.36235 82.0824 8.36235C83.4209 8.36235 84.5742 8.69632 85.3961 9.36426C86.2206 10.0322 86.6876 10.9245 86.7972 12.0386H83.9741C83.8984 11.569 83.7027 11.1828 83.3792 10.8776C83.0583 10.5749 82.6173 10.4236 82.0616 10.4236C81.5789 10.4236 81.1901 10.5514 80.8927 10.8045C80.5952 11.0576 80.4465 11.4255 80.4465 11.9082C80.4465 12.2917 80.5613 12.61 80.7909 12.8657C81.0205 13.1214 81.3101 13.3275 81.665 13.4867C82.0172 13.6485 82.4973 13.8285 83.1026 14.0242C83.9454 14.3216 84.629 14.6008 85.156 14.8591C85.6831 15.12 86.1318 15.5088 86.5023 16.028C86.8728 16.5472 87.0581 17.2282 87.0581 18.071C87.0581 18.7389 86.8911 19.3547 86.5571 19.9183V19.9209Z" fill="url(#paint0_linear_120_2477)"/>
<path d="M93.6309 19.4095V21.656H92.2559C91.1052 21.656 90.2233 21.3768 89.6102 20.8211C88.997 20.2653 88.6918 19.3365 88.6918 18.0371V13.5807H87.262V11.3707H88.6918V8.82682H91.3114V11.3707H93.6126V13.5807H91.3114V18.0736C91.3114 18.5694 91.4105 18.9164 91.6088 19.1147C91.8071 19.313 92.1411 19.4121 92.6107 19.4121H93.6309V19.4095Z" fill="url(#paint1_linear_120_2477)"/>
<path d="M100.675 11.8535C101.293 12.2631 101.734 12.8136 101.993 13.5051V11.3708H104.591V21.6586H101.993V19.5061C101.732 20.2001 101.293 20.7533 100.675 21.1681C100.057 21.583 99.3131 21.7891 98.4468 21.7891C97.5806 21.7891 96.8005 21.5777 96.1064 21.1577C95.4124 20.7376 94.8723 20.1271 94.4809 19.3287C94.0896 18.5303 93.8965 17.5936 93.8965 16.516C93.8965 15.4384 94.0922 14.5017 94.4809 13.7033C94.8697 12.9049 95.4124 12.2944 96.1064 11.8743C96.8005 11.4543 97.578 11.2429 98.4468 11.2429C99.3157 11.2429 100.054 11.4464 100.675 11.8561V11.8535ZM97.2962 14.3243C96.8005 14.8566 96.5526 15.5872 96.5526 16.516C96.5526 17.4449 96.8005 18.1728 97.2962 18.6973C97.7919 19.2243 98.4468 19.4852 99.2635 19.4852C100.08 19.4852 100.709 19.2165 101.223 18.6764C101.737 18.1389 101.993 17.4162 101.993 16.5134C101.993 15.6106 101.734 14.8696 101.223 14.3321C100.709 13.7947 100.057 13.5233 99.2635 13.5233C98.4703 13.5233 97.7893 13.7895 97.2962 14.3217V14.3243Z" fill="url(#paint2_linear_120_2477)"/>
<path d="M110.262 11.7882C110.893 11.4099 111.598 11.222 112.378 11.222V14.0269H111.616C109.698 14.0269 108.738 14.9192 108.738 16.7013V21.6586H106.121V11.3708H108.738V13.3381C109.122 12.6832 109.63 12.1666 110.262 11.7882Z" fill="url(#paint3_linear_120_2477)"/>
<path d="M118.808 19.4095V21.656H117.433C116.283 21.656 115.401 21.3768 114.788 20.821C114.175 20.2653 113.869 19.3364 113.869 18.0371V13.5806H112.439V11.3707H113.869V8.82678H116.489V11.3707H118.79V13.5806H116.489V18.0736C116.489 18.5693 116.588 18.9163 116.786 19.1146C116.985 19.3129 117.319 19.4121 117.788 19.4121H118.808V19.4095Z" fill="url(#paint4_linear_120_2477)"/>
<path d="M129.599 11.3707V21.6586H126.982V19.5791C126.708 20.2731 126.259 20.8132 125.635 21.2046C125.009 21.5934 124.289 21.789 123.472 21.789C122.283 21.789 121.338 21.4003 120.631 20.6201C119.926 19.84 119.574 18.752 119.574 17.3535V11.3759H122.173V17.0587C122.173 17.8753 122.384 18.5093 122.804 18.9607C123.224 19.4121 123.793 19.6391 124.513 19.6391C125.267 19.6391 125.867 19.3965 126.314 18.9138C126.76 18.4311 126.982 17.737 126.982 16.8343V11.3759H129.599V11.3707Z" fill="url(#paint5_linear_120_2477)"/>
<path d="M139.612 11.8716C140.306 12.2917 140.846 12.9023 141.237 13.7007C141.626 14.4991 141.822 15.4357 141.822 16.5133C141.822 17.5909 141.626 18.5276 141.237 19.326C140.846 20.1244 140.306 20.7349 139.612 21.155C138.918 21.5751 138.138 21.7864 137.272 21.7864C136.405 21.7864 135.664 21.5803 135.054 21.1654C134.441 20.7506 134.005 20.1974 133.744 19.5034V26.5585H131.127V11.3707H133.744V13.505C134.005 12.8109 134.441 12.2604 135.054 11.8534C135.667 11.4437 136.405 11.2402 137.272 11.2402C138.138 11.2402 138.918 11.4516 139.612 11.8716ZM134.495 14.3321C133.981 14.8696 133.726 15.5975 133.726 16.5133C133.726 17.4291 133.981 18.1388 134.495 18.6763C135.009 19.2138 135.662 19.4851 136.455 19.4851C137.248 19.4851 137.926 19.2216 138.422 18.6972C138.918 18.1701 139.166 17.4448 139.166 16.5159C139.166 15.5871 138.918 14.8565 138.422 14.3242C137.926 13.792 137.272 13.5258 136.455 13.5258C135.638 13.5258 135.009 13.7946 134.495 14.3347V14.3321Z" fill="url(#paint6_linear_120_2477)"/>
<path d="M149.25 12.1873C150.004 12.8188 150.476 13.6615 150.661 14.713H148.209C148.11 14.2173 147.888 13.8207 147.541 13.5258C147.194 13.2284 146.742 13.0797 146.187 13.0797C145.741 13.0797 145.394 13.184 145.146 13.3954C144.898 13.6067 144.775 13.8911 144.775 14.2486C144.775 14.533 144.874 14.7626 145.073 14.9348C145.271 15.107 145.519 15.2453 145.816 15.3444C146.114 15.4436 146.542 15.561 147.097 15.6966C147.877 15.8688 148.511 16.0515 148.999 16.2446C149.487 16.4376 149.91 16.7403 150.262 17.1552C150.614 17.57 150.792 18.131 150.792 18.8355C150.792 19.7147 150.447 20.427 149.761 20.9697C149.075 21.515 148.149 21.7864 146.985 21.7864C145.649 21.7864 144.577 21.4863 143.773 20.8862C142.97 20.2861 142.479 19.4277 142.307 18.3136H144.814C144.877 18.8224 145.099 19.2216 145.482 19.5112C145.866 19.8034 146.367 19.9469 146.985 19.9469C147.431 19.9469 147.77 19.8374 148.005 19.6208C148.24 19.4042 148.357 19.1225 148.357 18.7754C148.357 18.478 148.256 18.238 148.05 18.0501C147.846 17.8648 147.59 17.7213 147.288 17.6222C146.985 17.523 146.555 17.4056 145.996 17.27C145.229 17.0978 144.606 16.9203 144.131 16.7403C143.653 16.5603 143.246 16.2733 142.904 15.8767C142.563 15.4801 142.393 14.9348 142.393 14.2433C142.393 13.351 142.732 12.6283 143.413 12.0699C144.094 11.5116 145.036 11.235 146.236 11.235C147.436 11.235 148.491 11.5507 149.245 12.1821L149.25 12.1873Z" fill="url(#paint7_linear_120_2477)"/>
<path d="M29.692 11.7281C28.9276 8.18491 26.882 5.2444 24.1398 3.19622L22.9813 5.53401C25.0843 7.22735 26.6446 9.53384 27.2186 12.2578C27.4195 13.2049 27.516 14.1338 27.516 15.0391C27.516 20.9019 23.4927 25.7862 18.0396 27.1221L22.7778 16.3359C23.0439 15.7306 22.7987 15.0209 22.2142 14.7104L16.9959 11.9212L18.718 8.45365H18.7127L20.8653 4.11203L21.2801 3.2745L21.9898 1.84207C20.8731 1.26023 19.6677 0.855822 18.431 0.542725L18.7101 2.77093L18.7675 3.22753L19.0389 5.39313L17.7187 4.76954L14.1833 11.8951C13.878 12.5083 14.118 13.2519 14.7208 13.5754L19.9886 16.3907L14.7912 28.2258C14.6138 28.6276 14.6607 29.0998 14.9138 29.4599C15.1669 29.8199 15.5922 30.0261 16.0305 29.9974C23.8815 29.499 30.0495 22.997 30.0495 15.0391C30.0495 13.9563 29.9347 12.8475 29.6973 11.7281H29.692Z" fill="url(#paint8_linear_120_2477)"/>
<path d="M15.681 16.9621L10.2618 14.0711L15.4227 3.68934L14.1024 3.06575L14.8904 2.5648L16.4559 1.5707L18.1779 0.477478C16.9751 0.19569 15.7488 0 14.4912 0C9.30944 0 4.32858 2.70829 1.91512 7.40215C0.600111 9.96433 -0.00260071 12.563 8.43368e-06 15.0365C8.43368e-06 20.2731 2.70569 24.8678 6.77335 27.5578L7.81179 25.1965C4.62863 22.9292 2.53088 19.2346 2.53088 15.0365C2.53088 12.9727 3.02923 10.7836 4.16943 8.558C5.88364 5.19742 9.33292 3.04488 13.1266 2.6222L7.44651 14.045C7.14124 14.6556 7.38128 15.4044 7.984 15.7253L13.4528 18.6397L11.7542 22.5039L10.0087 26.475L9.95129 26.6055L8.99112 28.7893C9.05374 28.818 9.11115 28.8571 9.17638 28.8832H9.18421C9.4686 29.0059 9.77126 29.0659 10.0739 29.0633C11.0263 29.0554 11.8716 28.5075 12.2682 27.623L16.2393 18.5823C16.5055 17.977 16.2602 17.2673 15.6758 16.9568L15.681 16.9621Z" fill="url(#paint9_linear_120_2477)"/>
<defs>
<linearGradient id="paint0_linear_120_2477" x1="82.3512" y1="21.7864" x2="82.3512" y2="8.36235" gradientUnits="userSpaceOnUse">
<stop stop-color="#EF5722"/>
<stop offset="1" stop-color="#F59B36"/>
</linearGradient>
<linearGradient id="paint1_linear_120_2477" x1="90.4451" y1="21.6586" x2="90.4451" y2="8.82682" gradientUnits="userSpaceOnUse">
<stop stop-color="#EF5722"/>
<stop offset="1" stop-color="#F59B36"/>
</linearGradient>
<linearGradient id="paint2_linear_120_2477" x1="99.2452" y1="-115.282" x2="99.2452" y2="11.2403" gradientUnits="userSpaceOnUse">
<stop stop-color="#EF5722"/>
<stop offset="1" stop-color="#F59B36"/>
</linearGradient>
<linearGradient id="paint3_linear_120_2477" x1="109.249" y1="21.6586" x2="109.249" y2="11.222" gradientUnits="userSpaceOnUse">
<stop stop-color="#EF5722"/>
<stop offset="1" stop-color="#F59B36"/>
</linearGradient>
<linearGradient id="paint4_linear_120_2477" x1="115.625" y1="21.6586" x2="115.625" y2="8.82678" gradientUnits="userSpaceOnUse">
<stop stop-color="#EF5722"/>
<stop offset="1" stop-color="#F59B36"/>
</linearGradient>
<linearGradient id="paint5_linear_120_2477" x1="124.584" y1="-115.282" x2="124.584" y2="11.3707" gradientUnits="userSpaceOnUse">
<stop stop-color="#EF5722"/>
<stop offset="1" stop-color="#F59B36"/>
</linearGradient>
<linearGradient id="paint6_linear_120_2477" x1="136.473" y1="26.5585" x2="136.473" y2="11.2402" gradientUnits="userSpaceOnUse">
<stop stop-color="#EF5722"/>
<stop offset="1" stop-color="#F59B36"/>
</linearGradient>
<linearGradient id="paint7_linear_120_2477" x1="146.549" y1="-115.283" x2="146.549" y2="11.2402" gradientUnits="userSpaceOnUse">
<stop stop-color="#EF5722"/>
<stop offset="1" stop-color="#F59B36"/>
</linearGradient>
<linearGradient id="paint8_linear_120_2477" x1="22.0472" y1="30" x2="22.0472" y2="0.542725" gradientUnits="userSpaceOnUse">
<stop stop-color="#EF5722"/>
<stop offset="1" stop-color="#F59B36"/>
</linearGradient>
<linearGradient id="paint9_linear_120_2477" x1="9.08766" y1="29.0685" x2="9.08766" y2="0.00521771" gradientUnits="userSpaceOnUse">
<stop stop-color="#EF5722"/>
<stop offset="1" stop-color="#F59B36"/>
</linearGradient>
</defs>
</svg>
