<svg width="100" height="20" viewBox="0 0 100 20" fill="none" xmlns="http://www.w3.org/2000/svg">
<path d="M31.3356 16.0386C31.0596 16.2036 30.7683 16.3447 30.4653 16.46C29.7719 16.6817 29.044 16.7921 28.3119 16.7865C27.5846 16.7939 26.8633 16.6612 26.192 16.3968C25.5599 16.1526 24.9839 15.7949 24.4961 15.3434C24.015 14.9055 23.6351 14.3783 23.3804 13.795C23.1015 13.1868 22.9609 12.5302 22.9676 11.8675C22.9454 11.2208 23.0592 10.5764 23.3023 9.97146C23.802 8.79734 24.7782 7.86057 26.0135 7.36974C26.6526 7.11585 27.3396 6.98685 28.033 6.99054C28.7099 6.98338 29.3802 7.11641 29.9967 7.38027C30.5891 7.63069 31.1237 7.98858 31.5699 8.4336C32.0202 8.89842 32.369 9.44248 32.5964 10.0347C32.8557 10.6804 32.9844 11.3665 32.9757 12.0571C32.9757 12.4177 32.666 12.7101 32.284 12.7101H25.5895C25.7576 13.2915 26.1317 13.8008 26.6495 14.1532C27.168 14.5176 27.7995 14.7101 28.4458 14.7009C28.864 14.7005 29.279 14.6328 29.6731 14.5008L29.8405 14.427C30.3845 14.1819 31.0311 14.2691 31.4806 14.6482C31.8295 14.9808 31.8295 15.5165 31.4806 15.849C31.4408 15.9177 31.392 15.9813 31.3356 16.0386ZM27.9884 9.04453C27.4219 9.03112 26.8699 9.21482 26.4375 9.56066C25.9929 9.91993 25.6804 10.403 25.5449 10.9405H30.4207C30.2676 10.4106 29.9534 9.93452 29.5169 9.5712C29.1002 9.23432 28.5705 9.04772 28.0218 9.04453H27.9884ZM35.0622 3.90428H41.1541C42.3322 3.85568 43.4904 4.20275 44.4232 4.88388C45.2165 5.49584 45.6587 6.42444 45.617 7.3908C45.6226 7.92789 45.4721 8.45613 45.1819 8.91813C44.8733 9.37963 44.4574 9.76868 43.9657 10.0557C44.5771 10.3235 45.1068 10.733 45.5055 11.246C45.8813 11.7318 46.0809 12.3192 46.0745 12.9208C46.1117 13.9519 45.6321 14.9394 44.7802 15.5857C43.8319 16.3 42.6457 16.6733 41.433 16.639H35.0956C35.0168 16.6419 34.9401 16.6143 34.8833 16.5626C34.8264 16.511 34.7944 16.4397 34.7944 16.3652V4.18868C34.7944 4.03161 34.9293 3.90428 35.0956 3.90428H35.0622ZM40.8863 6.08467H37.5391V9.0972H40.8863C41.3944 9.11669 41.8943 8.97176 42.3033 8.6864C42.6419 8.41224 42.8368 8.0121 42.8368 7.59094C42.8368 7.16977 42.6419 6.76963 42.3033 6.49547C41.9034 6.21693 41.4165 6.07236 40.9198 6.08467H40.8863ZM41.1541 14.427C41.7028 14.4533 42.2438 14.2967 42.6826 13.9846C43.0749 13.7017 43.3025 13.2604 43.2963 12.7944C43.3104 12.3368 43.0955 11.8997 42.7161 11.6147C42.273 11.2841 41.7183 11.1158 41.1541 11.1407H37.5726V14.427H41.1541ZM49.1204 6.00041C48.7007 6.02317 48.292 5.86882 48.0047 5.57908C47.4246 5.02848 47.4246 4.13888 48.0047 3.58828C48.4406 3.18259 49.0944 3.06869 49.6549 3.30079C50.2154 3.53288 50.5695 4.0641 50.5486 4.64161C50.5534 5.014 50.3961 5.37194 50.1135 5.63174C49.8603 5.87704 49.5165 6.02046 49.1539 6.03201L49.1204 6.00041ZM50.437 7.40134V16.2914C50.437 16.4427 50.3071 16.5653 50.1469 16.5653H48.1386C48.0617 16.5653 47.9879 16.5365 47.9335 16.4851C47.8791 16.4337 47.8485 16.3641 47.8485 16.2914V7.43294C47.8485 7.28168 47.9784 7.15907 48.1386 7.15907H50.1804C50.2573 7.15907 50.3311 7.18792 50.3855 7.23928C50.4399 7.29064 50.4705 7.3603 50.4705 7.43294L50.437 7.40134ZM52.4788 16.2914V3.65148C52.4843 3.52137 52.5795 3.41006 52.7131 3.37762H54.7438C54.9036 3.34464 55.0621 3.43817 55.1008 3.58828V11.0775L59.3183 7.1696C59.3755 7.11899 59.452 7.09239 59.5303 7.09587H61.6613C61.8215 7.09587 61.9514 7.21848 61.9514 7.36974C61.9509 7.44497 61.9188 7.51693 61.8622 7.56987L57.7116 11.4251L62.1746 16.0702C62.2837 16.1797 62.2837 16.3505 62.1746 16.46C62.1201 16.508 62.0482 16.5344 61.9737 16.5337H59.4745C59.3948 16.5332 59.3186 16.5029 59.2625 16.4494L55.1343 12.2361V16.2704C55.1375 16.3439 55.1079 16.4153 55.0528 16.4673C54.9977 16.5194 54.922 16.5472 54.8442 16.5442H52.8135C52.6686 16.552 52.54 16.4575 52.5123 16.323L52.4788 16.2914ZM71.279 16.0386C70.9981 16.202 70.7033 16.3429 70.3976 16.46C69.7044 16.6825 68.9763 16.7929 68.2442 16.7865C67.5206 16.7927 66.8032 16.6601 66.1354 16.3968C65.4985 16.1552 64.9183 15.7973 64.4284 15.3434C63.9506 14.9029 63.5712 14.3764 63.3126 13.795C63.039 13.1853 62.8986 12.5297 62.8998 11.8675C62.8977 11.2106 63.0303 10.5596 63.2903 9.9504C63.553 9.36807 63.9318 8.83883 64.4061 8.39147C64.8739 7.94174 65.4313 7.58377 66.0462 7.33814C66.6853 7.08425 67.3723 6.95525 68.0657 6.95894C68.7424 6.9528 69.4125 7.08578 70.0294 7.34867C70.62 7.5966 71.1514 7.95491 71.5914 8.402C72.0491 8.86347 72.4022 9.40828 72.629 10.0031C72.8794 10.6508 73.0042 11.3359 72.9972 12.0255V12.4047C72.9972 12.5559 72.8674 12.6785 72.7071 12.6785H65.5776C65.7421 13.253 66.1078 13.7579 66.6152 14.111C67.133 14.4769 67.765 14.6696 68.4116 14.6588C68.8297 14.6575 69.2445 14.5899 69.6389 14.4586L69.8062 14.3849C70.3463 14.1386 70.9906 14.2261 71.4352 14.6061C71.7841 14.9386 71.7841 15.4744 71.4352 15.8069C71.4002 15.8933 71.3471 15.9722 71.279 16.0386ZM67.9318 9.04453C67.3653 9.03112 66.8133 9.21482 66.3809 9.56066C65.9328 9.91889 65.6164 10.402 65.4772 10.9405H70.3641C70.211 10.408 69.8923 9.93102 69.4492 9.5712C69.0451 9.24198 68.5323 9.05577 67.9987 9.04453H67.9318ZM88.0151 10.2769C88.0237 11.1673 87.8494 12.0509 87.5018 12.8787C86.5047 15.2709 84.0435 16.8311 81.3206 16.797C80.3611 16.8035 79.4095 16.6317 78.5201 16.2914C77.6871 15.9703 76.9289 15.4979 76.2887 14.901C74.9637 13.6807 74.2224 12.0034 74.2357 10.2559C74.2279 9.37374 74.4101 8.49934 74.7713 7.68573C75.9103 5.23948 78.4904 3.67509 81.3206 3.71468C82.4055 3.7083 83.4789 3.92391 84.467 4.34668C85.2921 4.74492 86.0453 5.26397 86.6985 5.88454C86.7537 5.936 86.7847 6.00618 86.7847 6.07941C86.7847 6.15264 86.7537 6.22282 86.6985 6.27427L85.1922 7.5804C85.1397 7.6319 85.0672 7.66099 84.9914 7.66099C84.9156 7.66099 84.8432 7.6319 84.7906 7.5804C84.3714 7.16552 83.8903 6.81067 83.3624 6.52707C82.7366 6.2405 82.0497 6.09278 81.3541 6.09521C80.7785 6.09568 80.2091 6.20678 79.6805 6.42174C79.1782 6.6235 78.7232 6.91704 78.3416 7.28547C77.95 7.65903 77.6359 8.09845 77.4156 8.58107C77.2072 9.10649 77.1013 9.66321 77.1031 10.2243C77.1004 10.7898 77.2102 11.3507 77.4267 11.878C77.6373 12.3636 77.944 12.8069 78.3305 13.1841C78.7178 13.5584 79.1806 13.8557 79.6917 14.0584C80.2288 14.27 80.8055 14.3775 81.3876 14.3744C82.267 14.397 83.1286 14.1371 83.831 13.637C84.4865 13.1733 84.939 12.4987 85.103 11.7411H81.7558C81.4292 11.7411 81.1644 11.4911 81.1644 11.1828V10.0347C81.1644 9.72634 81.4292 9.4764 81.7558 9.4764H87.7919C87.954 9.47629 88.0872 9.59732 88.0932 9.75026L88.0151 10.2769ZM89.2758 11.8885C89.2672 11.2256 89.4079 10.5686 89.6887 9.96093C89.9432 9.37445 90.323 8.84377 90.8044 8.402C91.853 7.4539 93.2579 6.9385 94.7095 6.96947C95.4258 6.96436 96.1357 7.09696 96.7959 7.3592C97.4259 7.60144 97.9986 7.95949 98.4807 8.41253C98.958 8.85748 99.3373 9.38733 99.5964 9.97146C99.8683 10.5814 100.005 11.2374 99.9981 11.8991C100.003 12.5605 99.8662 13.2162 99.5964 13.8266C99.337 14.4076 98.9577 14.9339 98.4807 15.375C97.999 15.8285 97.4262 16.1866 96.7959 16.4284C96.1357 16.6906 95.4258 16.8232 94.7095 16.8181C93.304 16.8109 91.9532 16.303 90.9271 15.3961C90.446 14.9582 90.0661 14.431 89.8114 13.8477C89.5049 13.2346 89.3413 12.5665 89.3316 11.8885H89.2758ZM94.5979 14.6272C95.356 14.6578 96.0902 14.3729 96.6062 13.8477C97.6756 12.7447 97.6756 11.0534 96.6062 9.9504C96.1018 9.43837 95.3944 9.1475 94.6537 9.1475C93.913 9.1475 93.2056 9.43837 92.7012 9.9504C91.6318 11.0534 91.6318 12.7447 92.7012 13.8477C93.2154 14.3753 93.9508 14.6607 94.7095 14.6272H94.5979Z" fill="white"/>
<path fill-rule="evenodd" clip-rule="evenodd" d="M10.9899 2.99587C11.6443 2.30039 11.6443 1.25785 10.9899 0.562367L10.9233 0.499969C10.6239 0.1821 10.193 0 9.74034 0C9.28767 0 8.85681 0.1821 8.5574 0.499969L0.482286 8.75725C-0.160762 9.45275 -0.160762 10.4848 0.482286 11.1804L8.5574 19.5C8.85681 19.8179 9.28767 20 9.74034 20C10.193 20 10.6239 19.8179 10.9233 19.5L10.9899 19.4272C11.6477 18.7369 11.6477 17.6944 10.9899 17.0041L4.16996 10.026L10.9899 2.99587Z" fill="#BFBFBF"/>
<path fill-rule="evenodd" clip-rule="evenodd" d="M2.88348 2.99628C2.22974 2.30084 2.22974 1.25836 2.88348 0.562915L2.95006 0.500521C3.25122 0.182202 3.68345 0 4.13741 0C4.59137 0 5.0236 0.182202 5.32477 0.500521L13.381 8.75732C14.0382 9.44759 14.0382 10.49 13.381 11.1803L5.32477 19.4995C5.0236 19.8178 4.59137 20 4.13741 20C3.68345 20 3.25122 19.8178 2.95006 19.4995L2.88348 19.4267C2.22634 18.7364 2.22634 17.694 2.88348 17.0037L9.6969 10.026L2.88348 2.99628Z" fill="white"/>
</svg>
